<?xml version="1.0" encoding="UTF-8" standalone="no" ?>
<!DOCTYPE svg PUBLIC "-//W3C//DTD SVG 1.1//EN" "http://www.w3.org/Graphics/SVG/1.1/DTD/svg11.dtd">
<svg xmlns="http://www.w3.org/2000/svg" xmlns:xlink="http://www.w3.org/1999/xlink" version="1.1" width="1080" height="1080" viewBox="0 0 1080 1080" xml:space="preserve">
<desc>Created with Fabric.js 5.2.4</desc>
<defs>
</defs>
<rect x="0" y="0" width="100%" height="100%" fill="transparent"></rect>
<g transform="matrix(1 0 0 1 540 540)" id="a5c55b1d-4b73-4b8a-9a5b-1e3d93a8828c"  >
</g>
<g transform="matrix(1 0 0 1 540 540)" id="0e1c4a28-e1d9-4ab7-b7f5-897fda684b14"  >
<rect style="stroke: none; stroke-width: 1; stroke-dasharray: none; stroke-linecap: butt; stroke-dashoffset: 0; stroke-linejoin: miter; stroke-miterlimit: 4; fill: rgb(255,255,255); fill-rule: nonzero; opacity: 1; visibility: hidden;" vector-effect="non-scaling-stroke"  x="-540" y="-540" rx="0" ry="0" width="1080" height="1080" />
</g>
<g transform="matrix(0.79 0 0 0.79 492.74 784.34)"  >
<path style="stroke: none; stroke-width: 1; stroke-dasharray: none; stroke-linecap: butt; stroke-dashoffset: 0; stroke-linejoin: miter; stroke-miterlimit: 4; fill: rgb(108,99,255); fill-rule: nonzero; opacity: 1;" vector-effect="non-scaling-stroke"  transform=" translate(-370.12, -531.17)" d="M 423.08824 489.19357 C 422.9634583438393 487.34112077442427 422.10728133296277 485.6142901559866 420.70835999999997 484.39357 L 409.57799 474.69357 C 406.86939667015116 472.3290730194506 402.809541422779 472.4025984847039 400.18834 474.86362 C 400.0181389088022 475.0201845202615 399.8578300673148 475.18717289681086 399.70833999999996 475.36362 L 370.6483 508.68356 L 367.46813000000003 512.32356 L 318.84801000000004 568.07356 C 316.31638392671016 570.9926341402314 316.6204217764991 575.4089562254358 319.52819000000005 577.95356 L 330.64830000000006 587.6535600000001 C 333.5635790427794 590.1908357631237 337.9821547762356 589.8911921697825 340.52819000000005 586.9835600000001 L 367.46813000000003 556.0935600000001 L 391.74840000000006 528.2435600000001 L 421.3782800000001 494.2735600000001 C 422.60145067016833 492.8751823723752 423.2168418172667 491.0469636576986 423.08824 489.19357 Z" stroke-linecap="round" />
</g>
<g transform="matrix(0.79 0 0 0.79 623.6 720.91)"  >
<path style="stroke: none; stroke-width: 1; stroke-dasharray: none; stroke-linecap: butt; stroke-dashoffset: 0; stroke-linejoin: miter; stroke-miterlimit: 4; fill: rgb(108,99,255); fill-rule: nonzero; opacity: 1;" vector-effect="non-scaling-stroke"  transform=" translate(-535.07, -451.18)" d="M 599.348 426.3436 L 592.58823 413.2236 C 590.8087381559546 409.796173842218 586.5941690058792 408.4509326491402 583.15806 410.2136 L 528.08823 438.6036 L 493.46811999999994 456.4536 L 473.81820999999997 466.5836 C 473.3043075662853 466.84714128198453 472.82697462167675 467.1765868040677 472.39829 467.5636 C 471.4450142055542 468.3927520959349 470.73909331723286 469.4689354109737 470.35828999999995 470.6736 C 469.786643428379 472.44195497789616 469.94865704243614 474.3657563144577 470.80799999999994 476.0136 L 473.4481399999999 481.1436 L 477.5682499999999 489.1336 C 478.4165646242174 490.7854014831448 479.8885682184821 492.0307118089895 481.65809999999993 492.5936 C 482.35404265485846 492.8111659991195 483.0788431242027 492.92241961783833 483.80799999999994 492.92359999999996 C 484.9187686659773 492.9242878614189 486.0132732975496 492.65670210883184 486.9984299999999 492.1436 L 510.3382699999999 480.1136 L 540.85827 464.37355 L 596.33827 435.77355 C 599.7653618422534 433.9938531056269 601.110432289633 429.7795728387662 599.34804 426.34355 Z" stroke-linecap="round" />
</g>
<g transform="matrix(0.79 0 0 0.79 599.84 732.8)"  >
<path style="stroke: none; stroke-width: 1; stroke-dasharray: none; stroke-linecap: butt; stroke-dashoffset: 0; stroke-linejoin: miter; stroke-miterlimit: 4; fill: rgb(47,46,65); fill-rule: nonzero; opacity: 1;" vector-effect="non-scaling-stroke"  transform=" translate(-505.05, -466.13)" d="M 541.15807 465.00357 L 540.85826 464.37357000000003 L 529.03795 440.02357 C 528.202039895815 438.36876988853635 526.7465961257803 437.1109168599618 524.98815 436.52357 C 523.212686793971 435.9311936201697 521.2734504554143 436.0789823107951 519.60826 436.93357000000003 L 490.76793 454.41357000000005 L 471.56822 466.05357000000004 C 471.4221549341058 466.12719738009673 471.2874691878534 466.22150097837294 471.16832 466.33357 C 470.06822 467.32357 469.47789 469.86357 468.9984 471.94357 C 468.82799 472.66357000000005 468.68834 473.29357000000005 468.5482 473.70357 C 468.4984 473.87357000000003 468.43834 474.05357000000004 468.3983 474.23357 C 467.99807814135966 475.8499407305913 468.1896310772724 477.55618077085126 468.9383 479.04357 L 471.29816000000005 483.75356999999997 L 475.55793000000006 492.23357 C 476.7533284009 494.60533913949615 479.1822135739123 496.10205593981806 481.83820000000003 496.10357 C 482.9087837580796 496.1024085975352 483.96401592841215 495.84888537539615 484.91828000000004 495.36357 L 511.77815000000004 484.76356999999996 L 538.03791 474.39356999999995 C 541.4871053282461 472.6575382549313 542.8823160529384 468.4586520887387 541.15803 465.00356999999997 Z" stroke-linecap="round" />
</g>
<g transform="matrix(0.79 0 0 0.79 552.86 659.51)"  >
<circle style="stroke: none; stroke-width: 1; stroke-dasharray: none; stroke-linecap: butt; stroke-dashoffset: 0; stroke-linejoin: miter; stroke-miterlimit: 4; fill: rgb(108,99,255); fill-rule: nonzero; opacity: 1;" vector-effect="non-scaling-stroke"  cx="0" cy="0" r="53.51916" />
</g>
<g transform="matrix(0.79 0 0 0.79 542.79 878.75)"  >
<path style="stroke: none; stroke-width: 1; stroke-dasharray: none; stroke-linecap: butt; stroke-dashoffset: 0; stroke-linejoin: miter; stroke-miterlimit: 4; fill: rgb(108,99,255); fill-rule: nonzero; opacity: 1;" vector-effect="non-scaling-stroke"  transform=" translate(-433.08, -650.18)" d="M 447.43834 587.38358 C 447.3324802515731 584.6044474734119 445.5827667010841 582.1549530878809 442.98814999999996 581.15358 C 442.18275006105046 580.8353114083598 441.3243638470218 580.6724420070523 440.45835999999997 580.67358 L 425.69811 580.67358 C 421.8338873051983 580.6778511573017 418.7023811573016 583.8093573051983 418.69811 587.67358 L 418.69811 712.68358 C 418.70237565776495 716.5478049763437 421.8338850236563 719.6793143422351 425.69811 719.68358 L 440.45835999999997 719.68358 C 444.32258269480167 719.6793088426983 447.45408884269835 716.5478026948017 447.45835999999997 712.68358 L 447.45835999999997 587.67361 C 447.46201711758516 587.5764965136027 447.4553058255994 587.4792699394451 447.43834 587.38358 Z" stroke-linecap="round" />
</g>
<g transform="matrix(0.79 0 0 0.79 569.04 839.09)"  >
<path style="stroke: none; stroke-width: 1; stroke-dasharray: none; stroke-linecap: butt; stroke-dashoffset: 0; stroke-linejoin: miter; stroke-miterlimit: 4; fill: rgb(108,99,255); fill-rule: nonzero; opacity: 1;" vector-effect="non-scaling-stroke"  transform=" translate(-466.27, -600.18)" d="M 514.4984 643.20358 C 514.2960264472426 642.7266830821882 514.041029607666 642.2738771191123 513.7381499999999 641.85358 L 488.5779899999999 606.6535799999999 L 467.84798999999987 577.6635799999999 L 432.48815 577.6635799999999 L 434.98815 581.1535799999999 L 439.43834000000004 587.3835799999999 L 453.22789000000006 606.6635799999999 L 482.77819000000005 647.99358 L 490.34801000000004 658.57358 C 492.5947223194975 661.7163379842393 496.962246665652 662.4457316661872 500.10826000000003 660.20358 L 512.11803 651.61358 C 514.7764223662437 649.7089347100458 515.7642321138771 646.2189394666183 514.4984 643.20358 Z M 442.19810999999993 541.78358 C 439.9449366903677 538.6425165885175 435.57448977035443 537.9178365465092 432.42810999999995 540.16358 L 420.41833999999994 548.7435800000001 C 417.2772970557017 550.9967535837197 416.55257122977343 555.3671528870547 418.79821999999996 558.51358 L 423.19812999999994 564.66358 L 458.558 564.66358 Z" stroke-linecap="round" />
</g>
<g transform="matrix(0.79 0 0 0.79 584.18 898.69)"  >
<path style="stroke: none; stroke-width: 1; stroke-dasharray: none; stroke-linecap: butt; stroke-dashoffset: 0; stroke-linejoin: miter; stroke-miterlimit: 4; fill: rgb(108,99,255); fill-rule: nonzero; opacity: 1;" vector-effect="non-scaling-stroke"  transform=" translate(-485.28, -675.22)" d="M 514.72789 643.54361 C 514.657117629391 643.4265163908217 514.5805250157409 643.3130409076153 514.4984 643.2036099999999 C 513.5697487648046 641.9424297487595 512.3478324338079 640.9264714953171 510.9383399999999 640.2436099999999 L 497.72788999999995 633.6736599999999 C 494.26788999999997 631.9536599999999 490.54819999999995 632.37366 489.4383399999999 634.61366 L 482.77818999999994 647.9936 L 455.38804999999996 703.0136 C 454.26793 705.2536 456.17805 708.4736 459.62827999999996 710.1936 L 472.83827999999994 716.7736 C 474.14969548191453 717.4430221512622 475.5961568582794 717.8054923779634 477.06827999999996 717.8335999999999 C 478.92814999999996 717.8335999999999 480.47794999999996 717.1435999999999 481.12834 715.8335999999999 L 515.17815 647.4336 C 515.724009947991 646.1481852629222 515.5529520863288 644.6703427468483 514.72789 643.54361 Z" stroke-linecap="round" />
</g>
<g transform="matrix(0.79 0 0 0.79 518.52 755.23)"  >
<path style="stroke: none; stroke-width: 1; stroke-dasharray: none; stroke-linecap: butt; stroke-dashoffset: 0; stroke-linejoin: miter; stroke-miterlimit: 4; fill: rgb(47,46,65); fill-rule: nonzero; opacity: 1;" vector-effect="non-scaling-stroke"  transform=" translate(-402.54, -494.42)" d="M 435.618 472.74356 L 433.39826999999997 470.56356 L 432.16826999999995 469.33356 L 425.10820999999993 462.38356 C 423.92119632938306 461.2159512084338 422.35848447790687 460.50726245568103 420.69805999999994 460.38356 C 420.50811999999996 460.37356 420.32793999999996 460.36356 420.1379999999999 460.36356 C 419.71807999999993 460.37351 419.0779399999999 460.31356 418.3279399999999 460.25351 C 415.9583099999999 460.05351 412.9983499999999 459.79351 411.9680799999999 460.85351 L 398.29814999999985 472.67351 L 369.40801999999985 497.64351 C 368.3596178141937 498.7016517006094 367.67946209767405 500.06901733791096 367.4680799999999 501.54350999999997 C 367.411197291313 501.8972728082477 367.3844080323004 502.2552211991494 367.38799999999986 502.61350999999996 C 367.3895028080209 502.93179724974874 367.4162803177089 503.2494625120317 367.4680799999999 503.56350999999995 C 367.68056725895184 505.07846632350055 368.3870095608313 506.4809744759661 369.4778399999999 507.55350999999996 L 370.6482499999999 508.68344999999994 L 389.5081199999999 526.7634499999999 C 390.8308957906286 528.0625439523417 392.6141396652591 528.7851891515368 394.4681199999999 528.7734499999999 C 395.2775073815536 528.7729296444224 396.0802445995762 528.6272920985914 396.8382299999999 528.34345 C 397.8155091076088 527.9826215384566 398.7001946423277 527.4087382253969 399.4280799999999 526.66345 L 432.2981899999999 486.75345000000004 L 434.4480999999999 484.14345000000003 L 435.6883299999999 482.64345000000003 C 438.39878757457234 479.888667654776 438.367322632657 475.45955541506885 435.618 472.74356 Z" stroke-linecap="round" />
</g>
<g transform="matrix(0.79 0 0 0.79 552.77 661.83)"  >
<path style="stroke: none; stroke-width: 1; stroke-dasharray: none; stroke-linecap: butt; stroke-dashoffset: 0; stroke-linejoin: miter; stroke-miterlimit: 4; fill: rgb(47,46,65); fill-rule: nonzero; opacity: 1;" vector-effect="non-scaling-stroke"  transform=" translate(-445.64, -376.65)" d="M 438.76584 393.67738 L 438.71017 391.67738 C 442.43087 391.57386 445.71117 391.34047000000004 448.17599 389.53968000000003 C 449.5899729044824 388.4479024242336 450.4591539106731 386.7950879559893 450.55734 385.01136 C 450.64511551806936 383.9195867532041 450.2188472810431 382.8493108234316 449.40451 382.11683000000005 C 447.76828 380.73500000000007 445.13551 381.18226000000004 443.21651 382.06214000000006 L 441.56172000000004 382.82093000000003 L 444.73506000000003 359.63050000000004 L 446.71651 359.90199000000007 L 444.01729 379.6285500000001 C 446.62471 378.8619500000001 449.04073 379.1920300000001 450.69551 380.58949000000007 C 451.9834937934236 381.713933515727 452.67174420173853 383.37585283291384 452.55586 385.08168000000006 C 452.4376819666227 387.4791684911984 451.2664048620295 389.7019886870928 449.35567 391.15492000000006 C 446.18869 393.46937 442.073 393.58461 438.76584 393.67738 Z" stroke-linecap="round" />
</g>
<g transform="matrix(0.79 0 0 0.79 565.68 650.72)"  >
<rect style="stroke: none; stroke-width: 1; stroke-dasharray: none; stroke-linecap: butt; stroke-dashoffset: 0; stroke-linejoin: miter; stroke-miterlimit: 4; fill: rgb(47,46,65); fill-rule: nonzero; opacity: 1;" vector-effect="non-scaling-stroke"  x="-5.385" y="-1" rx="0" ry="0" width="10.77" height="2" />
</g>
<g transform="matrix(0.79 0 0 0.79 538.7 650.72)"  >
<rect style="stroke: none; stroke-width: 1; stroke-dasharray: none; stroke-linecap: butt; stroke-dashoffset: 0; stroke-linejoin: miter; stroke-miterlimit: 4; fill: rgb(47,46,65); fill-rule: nonzero; opacity: 1;" vector-effect="non-scaling-stroke"  x="-5.385" y="-1" rx="0" ry="0" width="10.77" height="2" />
</g>
<g transform="matrix(0.79 0 0 0.79 471.66 602.91)"  >
<path style="stroke: none; stroke-width: 1; stroke-dasharray: none; stroke-linecap: butt; stroke-dashoffset: 0; stroke-linejoin: miter; stroke-miterlimit: 4; fill: rgb(47,46,65); fill-rule: nonzero; opacity: 1;" vector-effect="non-scaling-stroke"  transform=" translate(-343.68, -302.49)" d="M 440.93453 293.66357 C 434.99984 269.87435 411.99523999999997 251.60851 387.34562999999997 252.06295 C 375.14228365722965 252.40535656656058 363.3743699355734 256.67239128127795 353.78763 264.23105 C 348.95488470057245 267.9923906162749 344.7939561591968 272.54492824461573 341.4813 277.69560000000007 C 337.7663 283.4936 335.43359999999996 290.03860000000003 333.61235 296.6446 C 329.93242 309.99236 328.19804 325.09643000000005 318.85957 335.99679000000003 C 311.0247796482091 344.92469273418374 299.7042803526978 350.01753542845745 287.82624 349.958 C 275.83633994192377 349.7712056827674 264.6252810627839 343.9822249342836 257.53093 334.31461 C 250.50160000000002 324.94295 247.04093 311.98179 251.10193 300.67129 C 253.09473 295.12101 257.37978 289.87813 263.50833 288.95281 C 269.2204152778131 288.17964864371 274.8461856699596 290.87245681289 277.82657 295.80632 C 280.58268 300.64232000000004 279.70124 307.09518 276.24832 311.36080000000004 C 272.61145 315.85368000000005 266.53376 317.09771000000006 261.17332 315.29262000000006 C 258.65378963347365 314.4361702568654 256.4382821524875 312.86437097033644 254.79751 310.76928000000004 C 253.59881 309.25554000000005 251.47422 311.37779000000006 252.6606 312.87597000000005 C 256.52694935078773 317.51274480383086 262.5265563786387 319.8049536325515 268.49969 318.9274500000001 C 274.4746395882729 318.02353592265627 279.44878506860545 313.8671151848237 281.40002 308.14787000000007 C 283.53813854177287 302.48001660129125 282.3857457033082 296.09555277631955 278.40101999999996 291.53287000000006 C 274.2571709640586 287.02678310883346 268.06853609272497 284.99930085333204 262.06165999999996 286.17987000000005 C 255.73355999999995 287.5196700000001 251.13794999999996 292.72427000000005 248.75293999999997 298.49143000000004 C 246.40286139104435 304.4829215840961 245.78284692383505 311.0140240683419 246.96352999999996 317.3407 C 249.16708132523803 329.6878375348069 256.51667976411824 340.5156477890035 267.17808999999994 347.12184 C 277.84665999999993 353.67257 291.1628799999999 354.57384 302.86680999999993 350.36598000000004 C 308.71476584965444 348.2973556103053 314.05581967433903 345.00848125471765 318.53541999999993 340.71768000000003 C 323.34922323363486 335.8341223276266 327.0334339438709 329.954261305652 329.32841999999994 323.49246000000005 C 334.6052199999999 309.67618000000004 335.3783399999999 294.21592000000004 342.84461999999996 281.22889000000004 C 349.3570641325048 270.2016235611393 359.629629478727 261.89439150627726 371.77536 257.83314 C 383.85008047100575 253.6613617194419 397.06707552246075 254.29581924769806 408.6866799999999 259.605 C 420.2404729911409 264.95594477487674 429.5469192867167 274.19622812792716 434.98015999999996 285.71155 C 436.2740980916954 288.51739388365365 437.29759166572796 291.44020656190247 438.03675 294.44032 C 438.50494 296.31705999999997 441.40216 295.53839 440.93446 293.66363 Z" stroke-linecap="round" />
</g>
<g transform="matrix(0.79 0 0 0.79 564.4 781.08)"  >
<path style="stroke: none; stroke-width: 1; stroke-dasharray: none; stroke-linecap: butt; stroke-dashoffset: 0; stroke-linejoin: miter; stroke-miterlimit: 4; fill: rgb(47,46,65); fill-rule: nonzero; opacity: 1;" vector-effect="non-scaling-stroke"  transform=" translate(-460.47, -527.16)" d="M 498.77819 486.76358 Q 498.16295 484.39358 497.33819 482.11358 C 494.0087788389326 472.819748346986 488.16940435703026 464.6301396104804 480.46808 458.45358 Q 479.1629 457.38858 477.76788 456.41357999999997 C 473.1528921457074 453.15863091584885 468.04937329888304 450.6587500921168 462.64874 449.00769999999994 C 463.08137668871825 447.4639036387605 463.0740686240117 445.82993466712634 462.62764 444.29006999999996 C 461.3865511901585 440.305217774711 457.6741231353487 437.6098247045161 453.50082 437.66357999999997 L 440.4605 437.66357999999997 C 436.2774675007542 437.6082011625737 432.55494257542557 440.3073503779982 431.30736 444.30039 C 430.8624917350197 445.8356722162173 430.85526353755665 447.4646904204188 431.28649 449.00386 C 408.814776410628 455.9036197662354 393.47383074252207 476.6564626953183 393.46813000000003 500.16357999999997 L 393.46813000000003 603.836 C 393.46813000000003 610.91254 396.15807 616.66357 399.46813000000003 616.66357 L 494.46813000000003 616.66357 C 494.50813000000005 616.66357 521.53795 616.66357 521.57799 616.64215 C 524.83824 616.5352800000001 527.46813 610.8269 527.46813 603.836 L 527.46813 603.836 C 527.46813 579.90191 522.18013 546.26342 511.98213 524.61066 L 500.46813 500.16366000000005 C 500.4702931506979 495.64369011876425 499.90250133887037 491.1414854831948 498.77819 486.76358 Z" stroke-linecap="round" />
</g>
<g transform="matrix(0.79 0 0 0.79 510.17 655.09)"  >
<path style="stroke: none; stroke-width: 1; stroke-dasharray: none; stroke-linecap: butt; stroke-dashoffset: 0; stroke-linejoin: miter; stroke-miterlimit: 4; fill: rgb(63,61,86); fill-rule: nonzero; opacity: 1;" vector-effect="non-scaling-stroke"  transform=" translate(-391.97, -368.16)" d="M 391.96813 386.1636 C 385.35130999999996 386.1636 379.96813 378.08889999999997 379.96813 368.1636 C 379.96813 358.2383 385.35130999999996 350.1636 391.96813 350.1636 C 398.58495 350.1636 403.96813 358.23830999999996 403.96813 368.1636 C 403.96813 378.08889 398.585 386.1636 391.96813 386.1636 Z" stroke-linecap="round" />
</g>
<g transform="matrix(0.79 0 0 0.79 595.08 655.09)"  >
<path style="stroke: none; stroke-width: 1; stroke-dasharray: none; stroke-linecap: butt; stroke-dashoffset: 0; stroke-linejoin: miter; stroke-miterlimit: 4; fill: rgb(63,61,86); fill-rule: nonzero; opacity: 1;" vector-effect="non-scaling-stroke"  transform=" translate(-498.97, -368.16)" d="M 498.96813 386.1636 C 492.35130999999996 386.1636 486.96813 378.08889999999997 486.96813 368.1636 C 486.96813 358.2383 492.35130999999996 350.1636 498.96813 350.1636 C 505.58495 350.1636 510.96813 358.23830999999996 510.96813 368.1636 C 510.96813 378.08889 505.58483 386.1636 498.96813 386.1636 Z" stroke-linecap="round" />
</g>
<g transform="matrix(0.79 0 0 0.79 552.51 634.5)"  >
<path style="stroke: none; stroke-width: 1; stroke-dasharray: none; stroke-linecap: butt; stroke-dashoffset: 0; stroke-linejoin: miter; stroke-miterlimit: 4; fill: rgb(63,61,86); fill-rule: nonzero; opacity: 1;" vector-effect="non-scaling-stroke"  transform=" translate(-445.47, -342.28)" d="M 502.3358 383.34818 C 501.85273440795527 383.34772110754045 501.39939978132634 383.1148459476385 501.1176762463778 382.72243745301085 C 500.83595271142923 382.33002895838325 500.76026087159033 381.8260310722945 500.91429 381.36818 C 508.77256327843554 357.99961132794215 501.13607836812804 332.21256985973105 481.8203092631586 316.89122773239876 C 462.5045401581892 301.56988560506653 435.6561953362036 300.0034278851283 414.689713855955 312.9745155433646 C 393.7232323757064 325.9456032016009 383.1396975763088 350.6696036994679 388.22704 374.79347999999993 C 388.3957777965784 375.6031437353465 387.8773489917796 376.3966243350087 387.06809268799196 376.56730545027744 C 386.2588363842043 376.7379865655461 385.46411345021505 376.2214642079692 385.29149 375.41262 C 379.93934004656614 350.0491191814097 391.0651459764861 324.052745624703 413.1092277535335 310.4141554664234 C 435.1533095305808 296.77556530814377 463.3823761818363 298.4232278006031 483.69007179107564 314.5337889932232 C 503.9977674003149 330.64435018584334 512.0236367088349 357.7585608056021 503.75707 382.32717 C 503.551294397888 382.9370844026096 502.9794917518844 383.3478552059026 502.3358 383.34818 Z" stroke-linecap="round" />
</g>
<g transform="matrix(0.79 0 0 0.79 552.78 632.9)"  >
<path style="stroke: none; stroke-width: 1; stroke-dasharray: none; stroke-linecap: butt; stroke-dashoffset: 0; stroke-linejoin: miter; stroke-miterlimit: 4; fill: rgb(47,46,65); fill-rule: nonzero; opacity: 1;" vector-effect="non-scaling-stroke"  transform=" translate(-445.7, -340.17)" d="M 423.005 332.16569 C 420.88575 335.05845999999997 421.93052 338.95689999999996 424.16336 341.45096 C 427.06885 344.69637 431.70214 344.90112 435.72517 344.29877 C 440.23947 343.62284999999997 445.02777 341.50786 449.5981 342.93316 C 453.49345999999997 344.14796 456.27227999999997 347.6811 460.31919999999997 348.56853 C 463.90819999999997 349.35553 468.20000999999996 348.31376 469.4582 344.48838 C 470.06278999999995 342.65014 467.16677999999996 341.86227 466.56536 343.69086 C 465.75141 346.16564 462.23671 346.11629 460.22392 345.43098 C 456.99702 344.33230999999995 454.51017 341.65993 451.33851000000004 340.38349 C 447.59918000000005 338.87858 443.54231000000004 339.55800999999997 439.73528000000005 340.4153 C 436.14698000000004 341.2233 432.01728 342.4213 428.44262000000003 340.91195 C 425.79746000000006 339.79505 423.69277000000005 336.27695 425.59544000000005 333.67984 C 426.73764000000006 332.12074 424.13560000000007 330.62246 423.00503000000003 332.16569000000004 Z" stroke-linecap="round" />
</g>
<g transform="matrix(0.79 0 0 0.79 563.09 933.25)"  >
<path style="stroke: none; stroke-width: 1; stroke-dasharray: none; stroke-linecap: butt; stroke-dashoffset: 0; stroke-linejoin: miter; stroke-miterlimit: 4; fill: rgb(63,61,86); fill-rule: nonzero; opacity: 1;" vector-effect="non-scaling-stroke"  transform=" translate(-458.95, -718.66)" d="M 566.94844 719.6636 L 350.94844 719.6636 C 350.3961552501692 719.6636 349.94844 719.2158847498308 349.94844 718.6636 C 349.94844 718.1113152501691 350.3961552501692 717.6636 350.94844 717.6636 L 566.94844 717.6636 C 567.5007247498309 717.6636 567.94844 718.1113152501691 567.94844 718.6636 C 567.94844 719.2158847498308 567.5007247498309 719.6636 566.94844 719.6636 Z" stroke-linecap="round" />
</g>
</svg>