<?xml version="1.0" encoding="UTF-8" standalone="no" ?>
<!DOCTYPE svg PUBLIC "-//W3C//DTD SVG 1.1//EN" "http://www.w3.org/Graphics/SVG/1.1/DTD/svg11.dtd">
<svg xmlns="http://www.w3.org/2000/svg" xmlns:xlink="http://www.w3.org/1999/xlink" version="1.1" width="1080" height="1080" viewBox="0 0 1080 1080" xml:space="preserve">
<desc>Created with Fabric.js 5.2.4</desc>
<defs>
</defs>
<rect x="0" y="0" width="100%" height="100%" fill="transparent"></rect>
<g transform="matrix(1 0 0 1 540 540)" id="8b272ae8-8a91-4d51-a1e3-134abdb66112"  >
<rect style="stroke: none; stroke-width: 1; stroke-dasharray: none; stroke-linecap: butt; stroke-dashoffset: 0; stroke-linejoin: miter; stroke-miterlimit: 4; fill: rgb(255,255,255); fill-rule: nonzero; opacity: 1; visibility: hidden;" vector-effect="non-scaling-stroke"  x="-540" y="-540" rx="0" ry="0" width="1080" height="1080" />
</g>
<g transform="matrix(1 0 0 1 540 540)" id="4b9f8ea7-64e2-4c72-9b1b-810992899360"  >
</g>
<g transform="matrix(0.9 0 0 0.9 381.89 651.49)"  >
<path style="stroke: none; stroke-width: 1; stroke-dasharray: none; stroke-linecap: butt; stroke-dashoffset: 0; stroke-linejoin: miter; stroke-miterlimit: 4; fill: rgb(242,242,242); fill-rule: nonzero; opacity: 1;" vector-effect="non-scaling-stroke"  transform=" translate(-457, -375.02)" d="M 380.33038 251.43847 C 351.39227999999997 315.9366 321.505 485.90276 386.00313 514.84086 C 450.50125991976563 543.7789599353929 526.2462900646071 514.9518599197656 555.18439 450.45373000000006 C 584.1224899353929 385.95560008023443 555.2953899197656 310.21056993539287 490.79726000000005 281.27247 C 426.29913 252.33437 409.26848 186.94034 380.33038 251.43847 Z" stroke-linecap="round" />
</g>
<g transform="matrix(0.9 0 0 0.9 590.1 747.46)"  >
<path style="stroke: none; stroke-width: 1; stroke-dasharray: none; stroke-linecap: butt; stroke-dashoffset: 0; stroke-linejoin: miter; stroke-miterlimit: 4; fill: rgb(108,99,255); fill-rule: nonzero; opacity: 1;" vector-effect="non-scaling-stroke"  transform=" translate(-688.76, -481.7)" d="M 700.13329 527.60074 C 697.3233737612912 527.5948040987365 694.7997744684204 525.8798004703906 693.75981 523.26941 L 662.09792 455.05048999999997 C 659.2365327111266 447.8241505665002 662.7750255665003 439.6464322888733 670.0013650000001 436.78504499999997 C 677.2277044334999 433.92365771112657 685.4054227111267 437.46215056650016 688.2668100000001 444.68848999999994 L 715.9282300000001 512.90789 C 716.2866927201276 513.8048805801691 716.4496863002536 514.7680188840503 716.4063300000001 515.7330099999999 L 716.4063300000001 515.7330099999999 C 716.2826354443783 518.4296124333385 714.5901757765395 520.8034652312801 712.0812000000002 521.79946 L 698.6509000000002 527.1171099999999 C 697.83662 527.4397 700.9846 527.60074 700.13329 527.60074 Z" stroke-linecap="round" />
</g>
<g transform="matrix(0.9 0 0 0.9 483.54 753.63)"  >
<path style="stroke: none; stroke-width: 1; stroke-dasharray: none; stroke-linecap: butt; stroke-dashoffset: 0; stroke-linejoin: miter; stroke-miterlimit: 4; fill: rgb(108,99,255); fill-rule: nonzero; opacity: 1;" vector-effect="non-scaling-stroke"  transform=" translate(-570.1, -488.58)" d="M 531.83685 541.41086 C 531.113714377583 541.0803071913591 530.453551750542 540.626551126335 529.88585 540.06986 L 519.20842 529.6288599999999 L 519.22018 529.61686 C 516.8415779768171 526.9252767579234 516.941889944265 522.8546171188899 519.45018 520.28346 L 598.57072 439.37214 C 603.7984873402836 434.0276934583015 612.2925628195853 433.703351183557 617.9126636878037 438.63357698287484 C 623.5327645560221 443.5638027821927 624.3172924711685 452.0277871931907 619.69912 457.907 L 619.69912 457.907 C 619.3846034145679 458.3055716083686 619.049130488811 458.68714952965337 618.69412 459.05012 L 539.57359 539.96145 C 537.5554730207477 542.022329570173 534.4641306188221 542.6014595574579 531.83688 541.41084 Z" stroke-linecap="round" />
</g>
<g transform="matrix(0.9 0 0 0.9 561.92 861.07)"  >
<path style="stroke: none; stroke-width: 1; stroke-dasharray: none; stroke-linecap: butt; stroke-dashoffset: 0; stroke-linejoin: miter; stroke-miterlimit: 4; fill: rgb(108,99,255); fill-rule: nonzero; opacity: 1;" vector-effect="non-scaling-stroke"  transform=" translate(-657.32, -608.32)" d="M 664.54717 675.36134 L 650.10261 675.36134 C 646.3208761424984 675.3570965350042 643.2562334649958 672.2924538575016 643.25199 668.51072 L 643.25199 548.1216 C 643.2562279658124 544.3398638610488 646.3208738610489 541.2752179658123 650.10261 541.2709799999999 L 664.54717 541.2709799999999 C 668.328907762743 541.2752179552728 671.3935565244458 544.3398622434472 671.3978000000001 548.1216 L 671.3978000000001 668.51072 C 671.3935565244458 672.2924577565527 668.328907762743 675.3571020447272 664.54717 675.36134 Z" stroke-linecap="round" />
</g>
<g transform="matrix(0.9 0 0 0.9 532.76 861.07)"  >
<path style="stroke: none; stroke-width: 1; stroke-dasharray: none; stroke-linecap: butt; stroke-dashoffset: 0; stroke-linejoin: miter; stroke-miterlimit: 4; fill: rgb(108,99,255); fill-rule: nonzero; opacity: 1;" vector-effect="non-scaling-stroke"  transform=" translate(-624.84, -608.32)" d="M 632.06334 675.36134 L 617.61853 675.36134 C 613.8367961424983 675.3570965350042 610.7721534649958 672.2924538575016 610.7679099999999 668.51072 L 610.7679099999999 548.1216 C 610.7721479658123 544.3398638610488 613.8367938610488 541.2752179658123 617.61853 541.2709799999999 L 632.0633399999999 541.2709799999999 C 635.8450761389511 541.2752179658123 638.9097220341876 544.3398638610488 638.91396 548.1216 L 638.91396 668.51072 C 638.9097165350041 672.2924538575016 635.8450738575017 675.3570965350042 632.06334 675.36134 Z" stroke-linecap="round" />
</g>
<g transform="matrix(0.9 0 0 0.9 546.87 638.53)"  >
<circle style="stroke: none; stroke-width: 1; stroke-dasharray: none; stroke-linecap: butt; stroke-dashoffset: 0; stroke-linejoin: miter; stroke-miterlimit: 4; fill: rgb(108,99,255); fill-rule: nonzero; opacity: 1;" vector-effect="non-scaling-stroke"  cx="0" cy="0" r="49.91169" />
</g>
<g transform="matrix(0.9 0 0 0.9 516.54 644.24)"  >
<path style="stroke: none; stroke-width: 1; stroke-dasharray: none; stroke-linecap: butt; stroke-dashoffset: 0; stroke-linejoin: miter; stroke-miterlimit: 4; fill: rgb(47,46,65); fill-rule: nonzero; opacity: 1;" vector-effect="non-scaling-stroke"  transform=" translate(-606.76, -366.63)" d="M 613.48661 383.28952 C 610.25125 383.19968 606.2246700000001 383.08738 603.12261 380.82135999999997 C 601.2528231007319 379.39950729381803 600.106598974522 377.2243279745893 599.99082 374.87818999999996 C 599.8770831913693 373.20843968347066 600.5506823399435 371.5815622917229 601.81148 370.48092999999994 C 603.43166 369.1118399999999 605.79756 368.79071999999996 608.34719 369.53999999999996 L 605.70557 350.23535 L 607.64473 349.96966 L 610.75024 372.66474 L 609.1308799999999 371.92166 C 607.25348 371.06055999999995 604.6763799999999 370.62235999999996 603.07494 371.97565999999995 C 602.2778401384177 372.69281064448097 601.8607064875132 373.74061623900747 601.94683 374.80938 C 602.0428740916177 376.55489575448456 602.8934781011825 378.1722956940761 604.27724 379.24059 C 606.69124 381.0039 609.90084 381.23136999999997 613.54107 381.33315 Z" stroke-linecap="round" />
</g>
<g transform="matrix(0.9 0 0 0.9 502.25 631.93)"  >
<rect style="stroke: none; stroke-width: 1; stroke-dasharray: none; stroke-linecap: butt; stroke-dashoffset: 0; stroke-linejoin: miter; stroke-miterlimit: 4; fill: rgb(47,46,65); fill-rule: nonzero; opacity: 1;" vector-effect="non-scaling-stroke"  x="-5.27" y="-0.98" rx="0" ry="0" width="10.54" height="1.96" />
</g>
<g transform="matrix(0.9 0 0 0.9 532.12 631.93)"  >
<rect style="stroke: none; stroke-width: 1; stroke-dasharray: none; stroke-linecap: butt; stroke-dashoffset: 0; stroke-linejoin: miter; stroke-miterlimit: 4; fill: rgb(47,46,65); fill-rule: nonzero; opacity: 1;" vector-effect="non-scaling-stroke"  x="-5.27" y="-0.98" rx="0" ry="0" width="10.54" height="1.96" />
</g>
<g transform="matrix(0.9 0 0 0.9 545.52 757.52)"  >
<path style="stroke: none; stroke-width: 1; stroke-dasharray: none; stroke-linecap: butt; stroke-dashoffset: 0; stroke-linejoin: miter; stroke-miterlimit: 4; fill: rgb(47,46,65); fill-rule: nonzero; opacity: 1;" vector-effect="non-scaling-stroke"  transform=" translate(-639.15, -492.94)" d="M 677.32137 515.44178 L 691.02023 453.46211 C 691.0201858181184 441.29454131188714 681.1564686876917 431.4307704558771 668.9889 431.43066 L 609.31354 431.43066 C 597.1459674070611 431.4307649331129 587.2822441819446 441.2945374066889 587.2822 453.46211 L 603.77847 514.97085 C 594.29005 516.2094000000001 609.77006 553.9537700000001 609.77006 553.9537700000001 L 670.44706 554.4474100000001 C 670.44706 554.4474100000001 685.35662 517.09948 677.32137 515.44178 Z" stroke-linecap="round" />
</g>
<g transform="matrix(0.9 0 0 0.9 532.09 837.02)"  >
<rect style="stroke: none; stroke-width: 1; stroke-dasharray: none; stroke-linecap: butt; stroke-dashoffset: 0; stroke-linejoin: miter; stroke-miterlimit: 4; fill: rgb(47,46,65); fill-rule: nonzero; opacity: 1;" vector-effect="non-scaling-stroke"  x="-15.5" y="-36.5" rx="0" ry="0" width="31" height="73" />
</g>
<g transform="matrix(0.9 0 0 0.9 561.71 837.02)"  >
<rect style="stroke: none; stroke-width: 1; stroke-dasharray: none; stroke-linecap: butt; stroke-dashoffset: 0; stroke-linejoin: miter; stroke-miterlimit: 4; fill: rgb(47,46,65); fill-rule: nonzero; opacity: 1;" vector-effect="non-scaling-stroke"  x="-15.5" y="-36.5" rx="0" ry="0" width="31" height="73" />
</g>
<g transform="matrix(0.9 0 0 0.9 513.68 597.05)"  >
<path style="stroke: none; stroke-width: 1; stroke-dasharray: none; stroke-linecap: butt; stroke-dashoffset: 0; stroke-linejoin: miter; stroke-miterlimit: 4; fill: rgb(47,46,65); fill-rule: nonzero; opacity: 1;" vector-effect="non-scaling-stroke"  transform=" translate(-603.62, -314.08)" d="M 626.2558 336.09636 C 624.7168 331.29421 620.45847 328.05166 615.7152100000001 326.72507 C 609.5183400000001 324.99193 603.0144 326.58507000000003 596.88458 327.80607000000003 C 591.07686 328.96289 584.5979600000001 329.94730000000004 579.2042200000001 326.84462 C 575.22463 324.5554 572.46337 319.95311000000004 574.8042200000001 315.50274 C 575.65152005524 313.64146885506153 577.3827301254798 312.3350417548189 579.4050300000001 312.03082 C 581.8748900000002 311.81405 584.2624300000001 313.10172 586.7372800000002 313.09355 C 589.0683714910034 313.1761423862321 591.1671932616403 311.690668193842 591.8644000000002 309.46475 C 592.5090000000001 307.34355 591.8615000000002 305.17566999999997 592.0124000000002 303.02304 C 592.3498600000001 298.21013 598.1927100000001 302.67368 600.2752600000002 303.56365999999997 C 602.1500448872816 304.5266720819912 604.3434116310973 304.65678306003184 606.3189000000002 303.92217 C 608.5693800000003 302.94917 609.9250800000002 300.79456 611.2714300000002 298.85725 C 614.2680465031717 294.2633280939575 619.9215163747513 292.1765417879421 625.1842100000002 293.72182000000004 C 630.5200400000002 295.40282 633.7820300000002 301.08282 633.2310700000003 306.51612000000006 C 633.0364700000002 308.43518000000006 636.0378400000003 308.4216200000001 636.2310700000003 306.51612000000006 C 636.6796088869921 301.11498159642014 634.2470460515109 295.8775398105135 629.8307600000003 292.7359000000001 C 623.0881081038248 288.2597569576631 614.0128916681286 289.91688450082825 609.2873000000003 296.48712000000006 C 608.0284600000003 298.19680000000005 606.7023500000003 301.08312000000006 604.3377800000003 301.41663000000005 C 602.3609600000003 301.69541000000004 600.3215100000003 300.27756000000005 598.6706000000003 299.39895000000007 C 596.9325500000002 298.47395000000006 594.9669100000002 297.4434500000001 592.9326000000002 297.81995000000006 C 590.7644205086002 298.3280304779244 589.1901608369284 300.20384340110655 589.0659300000002 302.4272900000001 C 588.9831296668129 303.4673507029744 588.9947404699632 304.5127748338377 589.1006200000002 305.5507400000001 C 589.3128068294889 306.6936195506113 589.2275714137651 307.87186005248515 588.8531000000002 308.9723000000001 C 587.7106500000001 311.1880000000001 584.0515100000001 309.6394700000001 582.2694000000001 309.3041100000001 C 579.9206351707664 308.70350792823194 577.4280561713002 309.1010922869945 575.3826900000001 310.4025900000001 C 571.287451573783 313.33620060145586 569.8301995940748 318.75138713621953 571.9000800000001 323.34406000000007 C 574.1040800000001 328.1780600000001 579.3308300000001 330.98523000000006 584.4074600000001 331.68390000000005 C 592.3720500000002 332.78002000000004 599.9479300000002 329.53279000000003 607.8086100000002 329.03749000000005 C 613.7746100000002 328.66156000000007 621.2995100000002 330.45549000000005 623.3629200000001 336.89389000000006 C 623.9498400000001 338.72526000000005 626.8473500000001 337.94232000000005 626.2557500000001 336.09637000000004 Z" stroke-linecap="round" />
</g>
<g transform="matrix(0.9 0 0 0.9 550.92 920.76)"  >
<path style="stroke: none; stroke-width: 1; stroke-dasharray: none; stroke-linecap: butt; stroke-dashoffset: 0; stroke-linejoin: miter; stroke-miterlimit: 4; fill: rgb(63,61,86); fill-rule: nonzero; opacity: 1;" vector-effect="non-scaling-stroke"  transform=" translate(-638.2, -674.94)" d="M 851.35188 676.05258 L 425.05388000000005 676.05258 C 424.45095966503885 676.0393974282705 423.9690730665341 675.5468594331306 423.9690730665341 674.943795 C 423.9690730665341 674.3407305668694 424.45095966503885 673.8481925717296 425.05388000000005 673.83501 L 851.35188 673.83501 C 851.9548003349612 673.8481925717296 852.436686933466 674.3407305668694 852.436686933466 674.943795 C 852.436686933466 675.5468594331306 851.9548003349612 676.0393974282705 851.35188 676.05258 Z" stroke-linecap="round" />
</g>
<g transform="matrix(0.9 0 0 0.9 585.55 780.19)"  >
<path style="stroke: none; stroke-width: 1; stroke-dasharray: none; stroke-linecap: butt; stroke-dashoffset: 0; stroke-linejoin: miter; stroke-miterlimit: 4; fill: rgb(108,99,255); fill-rule: nonzero; opacity: 1;" vector-effect="non-scaling-stroke"  transform=" translate(-683.71, -518.07)" d="M 650.97017 509.31069 C 651.9926571856921 506.6934056511722 654.5047276151682 504.96156397600697 657.3145400000001 504.93683000000004 L 702.7307000000001 503.06615000000005 C 707.7607995969965 503.02869699068214 712.4283989659335 505.6789249601363 714.9737352994644 510.0176537639243 C 717.5190716329952 514.3563825677122 717.5550480280866 519.7237746586604 715.0681007837821 524.096233702226 C 712.5811535394777 528.4686927457915 707.9494996967223 531.1812514713987 702.9193500000001 531.21123 L 657.5029100000002 533.0813 C 656.536992458 533.0908305341627 655.5801541592449 532.8942018047247 654.6962700000001 532.50454 L 654.6962700000001 532.50454 C 652.2272307218884 531.4132944370398 650.6268215280116 528.976431772618 650.6063800000002 526.27707 L 650.5098200000002 511.83266 C 650.5026430476208 510.97047636114104 650.6588463885699 510.1147358598411 650.97017 509.31069 Z" stroke-linecap="round" />
</g>
<g transform="matrix(0.32 0 0 0.32 331.55 592.72)"  >
<path style="stroke: rgb(0,0,0); stroke-width: 0; stroke-dasharray: none; stroke-linecap: butt; stroke-dashoffset: 0; stroke-linejoin: miter; stroke-miterlimit: 4; fill: rgb(12,12,12); fill-rule: nonzero; opacity: 1;" vector-effect="non-scaling-stroke"  transform=" translate(-50, -50)" d="M 16.28 19.945 L 19.957 16.32 C 22.060000000000002 14.166 25.578000000000003 14.166 27.681 16.32 L 50.007000000000005 38.595 L 72.333 16.32 C 74.43599999999999 14.166 77.954 14.166 80.054 16.32 L 83.68 19.945 C 85.834 22.046 85.834 25.566000000000003 83.68 27.668 L 61.405 49.993 L 83.68 72.32 C 85.834 74.422 85.834 77.939 83.68 80.04299999999999 L 80.054 83.72099999999999 C 77.95400000000001 85.82 74.436 85.82 72.333 83.72099999999999 L 50.007 61.393 L 27.681 83.721 C 25.578 85.82000000000001 22.060000000000002 85.82000000000001 19.957 83.721 L 16.28 80.043 C 14.180000000000001 77.93900000000001 14.180000000000001 74.42200000000001 16.28 72.32000000000001 L 38.606 49.99300000000001 L 16.28 27.667 C 14.18 25.566 14.18 22.046 16.28 19.945 z" stroke-linecap="round" />
</g>
<g transform="matrix(0.7 -0.35 0.35 0.7 388.96 635.8)" style="" id="8d7e859a-05a6-4a54-ab9a-63355e6761a4"  >
		<text xml:space="preserve" font-family="Lato" font-size="40" font-style="normal" font-weight="400" style="stroke: none; stroke-width: 1; stroke-dasharray: none; stroke-linecap: butt; stroke-dashoffset: 0; stroke-linejoin: miter; stroke-miterlimit: 4; fill: rgb(0,0,0); fill-rule: nonzero; opacity: 1; white-space: pre;" ><tspan x="-38.66" y="12.57" style="white-space: pre; "> 789</tspan></text>
</g>
<g transform="matrix(0.64 0.37 -0.37 0.64 333.44 679.68)" style="" id="a3915878-bd41-400f-8647-14c218c3369e"  >
		<text xml:space="preserve" font-family="Lato" font-size="40" font-style="normal" font-weight="400" style="stroke: none; stroke-width: 1; stroke-dasharray: none; stroke-linecap: butt; stroke-dashoffset: 0; stroke-linejoin: miter; stroke-miterlimit: 4; fill: rgb(0,0,0); fill-rule: nonzero; opacity: 1; white-space: pre;" ><tspan x="-34.8" y="12.57" >1+4</tspan></text>
</g>
<g transform="matrix(0.57 0.18 -0.18 0.57 559.41 758.54)" style="" id="705d01ae-aa24-485e-a54b-536c7f8b0f79"  >
		<text xml:space="preserve" font-family="Lato" font-size="40" font-style="normal" font-weight="400" style="stroke: none; stroke-width: 1; stroke-dasharray: none; stroke-linecap: butt; stroke-dashoffset: 0; stroke-linejoin: miter; stroke-miterlimit: 4; fill: rgb(255,255,255); fill-rule: nonzero; opacity: 1; white-space: pre;" ><tspan x="-22.5" y="-28.11" >3</tspan><tspan x="-0.7" y="-28.11" >4</tspan><tspan x="-22.5" y="12.57" >2</tspan><tspan x="-0.7" y="12.57" >2</tspan></text>
</g>
<g transform="matrix(0.57 -0.19 0.19 0.57 543.91 745.37)" style=""  >
		<text xml:space="preserve" font-family="Lato" font-size="40" font-style="normal" font-weight="400" style="stroke: none; stroke-width: 1; stroke-dasharray: none; stroke-linecap: butt; stroke-dashoffset: 0; stroke-linejoin: miter; stroke-miterlimit: 4; fill: rgb(255,255,255); fill-rule: nonzero; opacity: 1; white-space: pre;" ><tspan x="-31.88" y="-28.11" >2</tspan><tspan x="-10.08" y="-28.11" >x</tspan><tspan x="8.68" y="-28.11" >5</tspan><tspan x="-22.5" y="12.57" >7</tspan><tspan x="-0.7" y="12.57" >8</tspan></text>
</g>
<g transform="matrix(0.66 -0.22 0.22 0.66 366.9 748.38)" style=""  >
		<text xml:space="preserve" font-family="Lato" font-size="40" font-style="normal" font-weight="400" style="stroke: none; stroke-width: 1; stroke-dasharray: none; stroke-linecap: butt; stroke-dashoffset: 0; stroke-linejoin: miter; stroke-miterlimit: 4; fill: rgb(0,0,0); fill-rule: nonzero; opacity: 1; white-space: pre;" ><tspan x="-67.28" y="12.57" style="white-space: pre; "> 34-x=9</tspan></text>
</g>
</svg>