<?xml version="1.0" encoding="UTF-8" standalone="no" ?>
<!DOCTYPE svg PUBLIC "-//W3C//DTD SVG 1.1//EN" "http://www.w3.org/Graphics/SVG/1.1/DTD/svg11.dtd">
<svg xmlns="http://www.w3.org/2000/svg" xmlns:xlink="http://www.w3.org/1999/xlink" version="1.1" width="1080" height="1080" viewBox="0 0 1080 1080" xml:space="preserve">
<desc>Created with Fabric.js 5.2.4</desc>
<defs>
</defs>
<rect x="0" y="0" width="100%" height="100%" fill="transparent"></rect>
<g transform="matrix(1 0 0 1 540 540)" id="b7c6ecb7-9d7a-4888-ba72-8ff050f8c168"  >
<rect style="stroke: none; stroke-width: 1; stroke-dasharray: none; stroke-linecap: butt; stroke-dashoffset: 0; stroke-linejoin: miter; stroke-miterlimit: 4; fill: rgb(255,255,255); fill-rule: nonzero; opacity: 1; visibility: hidden;" vector-effect="non-scaling-stroke"  x="-540" y="-540" rx="0" ry="0" width="1080" height="1080" />
</g>
<g transform="matrix(1 0 0 1 540 540)" id="87cc6b4b-882d-4bea-b7d9-607d1570ab76"  >
</g>
<g transform="matrix(1 0 0 1 1758.18 255.28)"  >
<path style="stroke: none; stroke-width: 1; stroke-dasharray: none; stroke-linecap: butt; stroke-dashoffset: 0; stroke-linejoin: miter; stroke-miterlimit: 4; fill: rgb(242,242,242); fill-rule: nonzero; opacity: 1;" vector-effect="non-scaling-stroke"  transform=" translate(-643.5, -473.01)" d="M 883.86176 743.78487 C 909.59626 736.0561899999999 936.95557 727.9970099999999 957.3648900000001 709.6238699999999 C 975.60252 693.2057399999999 987.9151300000001 668.1347499999999 980.35964 643.5123699999999 C 972.81964 618.9404999999999 950.2354300000001 602.55608 926.91799 594.4070499999999 C 913.69299 589.7851699999999 899.85712 587.22097 886.02652 585.2066799999999 C 870.99167 583.0170099999999 855.89037 581.2229499999999 840.79626 579.4965599999999 Q 749.11902 569.0109299999999 656.7524 566.6855599999999 C 626.36784 565.9203099999999 595.9888199999999 565.9387399999999 565.59997 566.3798599999999 C 538.4606 566.7738599999999 509.87782 566.7640299999999 484.70097 555.2293499999998 C 465.12251 546.2595599999999 447.35296999999997 529.9405399999998 441.89767 508.49582999999984 C 435.60039 483.74115999999987 447.21567 458.53200999999984 463.87760000000003 440.60382999999985 C 472.66025 431.15371999999985 482.92491 423.19997999999987 493.51381000000003 415.88639999999987 C 505.00121 407.95223999999985 516.8892000000001 400.5799699999999 529.03465 393.69826999999987 C 552.9557334037145 380.1510373441283 577.9645725441767 368.62161084927135 603.8013499999997 359.2297699999999 C 616.5469 354.59531999999984 629.4818200000001 350.59695999999985 642.52894 346.90833999999984 C 653.5459400000001 343.79364999999984 664.59726 340.67451999999986 675.24482 336.4308599999998 C 695.82831 328.2271499999998 715.40582 314.3310099999998 720.63946 291.54943999999983 C 725.5997 269.9579899999998 717.23641 246.51876999999985 702.5744599999999 230.47886999999983 C 685.61164 211.92186999999984 660.0349699999999 203.78705999999983 635.5143899999999 202.47086999999982 C 607.98597 200.9932199999998 581.0919299999999 207.88286999999983 555.2176099999999 216.6267199999998 C 527.6208799999999 225.9527199999998 500.6190699999999 236.6759599999998 472.4393399999999 244.2299399999998 C 444.4951381756935 251.7133496392387 416.010366043717 257.008221402858 387.2435999999999 260.0664899999998 C 373.1613299999999 261.5659999999998 358.6534099999999 263.2592199999998 344.4873399999999 262.11123999999984 C 332.6148799999999 261.14912999999984 320.8030799999999 257.6574899999998 312.0532599999999 249.23159999999984 C 304.5507399999999 242.00682999999984 300.0814199999999 232.07759999999985 301.6179599999999 221.59921999999983 C 301.8970499999999 219.69603999999984 304.7881799999999 220.50514999999984 304.5107999999999 222.39673999999982 C 302.6403999999999 235.15186999999983 311.3107099999999 246.90536999999983 321.9949499999999 252.92603999999983 C 334.3431199999999 259.88435999999984 349.3690299999999 259.89383999999984 363.1167499999999 259.09803999999986 C 392.9256648880697 257.297657981342 422.53284291865634 253.01766071897242 451.6312699999998 246.30242999999984 C 480.2237899999999 239.77183999999986 507.7950899999999 230.43609999999984 535.3351799999999 220.46334999999985 C 561.4911199999999 210.99181999999985 588.23183 201.74755999999985 616.17527 199.69605999999985 C 640.42138 197.91598999999985 665.92692 201.44827999999984 687.04953 214.11918999999983 C 705.6134 225.25518999999983 719.26435 243.82640999999984 723.61404 265.1373199999998 C 727.8644800000001 285.9619399999998 721.9777200000001 306.9223199999998 706.2140400000001 321.4544599999998 C 689.8925700000001 336.5007899999998 667.5133400000001 342.9335499999998 646.65749 348.8581399999998 C 620.2052600000001 356.3725099999998 594.32023 365.1562299999998 569.2650100000001 376.5612399999998 C 543.8684898347982 388.08896341696595 519.511816446606 401.7822295837102 496.46491000000003 417.4892899999998 C 474.2186600000001 432.6915699999998 452.2642100000001 451.8198699999998 445.2283300000001 478.9405499999998 C 441.95094000000006 491.5736799999998 442.55606000000006 504.9726699999998 448.0399300000001 516.9051599999998 C 452.9159800000001 527.5150899999998 460.9464900000001 536.4398499999998 470.30162000000007 543.3236899999998 C 492.62236000000007 559.7481199999999 520.7542800000001 563.1203399999998 547.7158300000001 563.4558099999998 C 577.9972600000001 563.8325899999999 608.2796500000001 562.8106299999998 638.5709100000001 563.3078099999998 Q 731.1697100000001 564.8275799999998 823.3895400000001 574.5804599999998 Q 846.4975400000001 577.0263999999997 869.5471300000002 579.9875699999998 C 883.3687100000002 581.7635699999997 897.2368000000001 583.5281499999998 910.8256200000002 586.6822099999998 C 934.9878400000002 592.2904299999998 958.4995100000002 603.0738799999998 973.5174000000002 623.5602099999999 C 980.1827379070016 632.4400610777316 984.3119888555948 642.9630323898501 985.4644900000002 654.0061399999998 C 986.5158300000002 665.5299799999998 983.6946400000002 677.0754399999998 978.4843300000002 687.3269699999998 C 966.9520000000002 710.0173899999999 945.3507000000002 724.4498299999998 922.4109600000003 733.9316799999998 C 910.1241300000003 739.0102799999999 897.3792900000003 742.8576799999998 884.6593600000002 746.6777699999998 C 882.8063600000003 747.2342799999998 882.0144900000003 744.3397699999998 883.8618400000003 743.7849399999998 Z" stroke-linecap="round" />
</g>
<g transform="matrix(1 0 0 1 595.66 -131.97)"  >
<circle style="stroke: none; stroke-width: 1; stroke-dasharray: none; stroke-linecap: butt; stroke-dashoffset: 0; stroke-linejoin: miter; stroke-miterlimit: 4; fill: rgb(242,242,242); fill-rule: nonzero; opacity: 1;" vector-effect="non-scaling-stroke"  cx="0" cy="0" r="24" />
</g>
<g transform="matrix(1 0 0 1 762.16 -86.47)"  >
<circle style="stroke: none; stroke-width: 1; stroke-dasharray: none; stroke-linecap: butt; stroke-dashoffset: 0; stroke-linejoin: miter; stroke-miterlimit: 4; fill: rgb(242,242,242); fill-rule: nonzero; opacity: 1;" vector-effect="non-scaling-stroke"  cx="0" cy="0" r="24" />
</g>
<g transform="matrix(1 0 0 1 903.16 -177.47)"  >
<circle style="stroke: none; stroke-width: 1; stroke-dasharray: none; stroke-linecap: butt; stroke-dashoffset: 0; stroke-linejoin: miter; stroke-miterlimit: 4; fill: rgb(242,242,242); fill-rule: nonzero; opacity: 1;" vector-effect="non-scaling-stroke"  cx="0" cy="0" r="24" />
</g>
<g transform="matrix(1 0 0 1 991.16 -75.47)"  >
<circle style="stroke: none; stroke-width: 1; stroke-dasharray: none; stroke-linecap: butt; stroke-dashoffset: 0; stroke-linejoin: miter; stroke-miterlimit: 4; fill: rgb(242,242,242); fill-rule: nonzero; opacity: 1;" vector-effect="non-scaling-stroke"  cx="0" cy="0" r="24" />
</g>
<g transform="matrix(1 0 0 1 1396.39 274.04)"  >
<circle style="stroke: none; stroke-width: 1; stroke-dasharray: none; stroke-linecap: butt; stroke-dashoffset: 0; stroke-linejoin: miter; stroke-miterlimit: 4; fill: rgb(242,242,242); fill-rule: nonzero; opacity: 1;" vector-effect="non-scaling-stroke"  cx="0" cy="0" r="24" />
</g>
<g transform="matrix(1 0 0 1 1254.16 227.53)"  >
<circle style="stroke: none; stroke-width: 1; stroke-dasharray: none; stroke-linecap: butt; stroke-dashoffset: 0; stroke-linejoin: miter; stroke-miterlimit: 4; fill: rgb(242,242,242); fill-rule: nonzero; opacity: 1;" vector-effect="non-scaling-stroke"  cx="0" cy="0" r="24" />
</g>
<g transform="matrix(0.47 0 0 0.47 398.32 648.53)"  >
<path style="stroke: none; stroke-width: 1; stroke-dasharray: none; stroke-linecap: butt; stroke-dashoffset: 0; stroke-linejoin: miter; stroke-miterlimit: 4; fill: rgb(63,61,86); fill-rule: nonzero; opacity: 1;" vector-effect="non-scaling-stroke"  transform=" translate(-699.06, -416.05)" d="M 793.71626 303.64477 C 792.2537270165604 300.17201186996687 788.8636273105379 297.90382214252026 785.09556 297.87698 L 613.02293 297.87698 C 607.8725289032967 297.8797441050653 603.6979941050653 302.05427890329673 603.6952299999999 307.20468 L 603.6952299999999 524.89257 C 603.6979941101152 530.0429694761384 607.8725305209011 534.2175014115054 613.02293 534.2202599999999 L 785.10177 534.2202599999999 C 790.2504921507182 534.2134455808547 794.4226635015999 530.0412921214486 794.4295 524.89257 L 794.4295 307.20468 C 794.4336137478842 305.98276704718376 794.1932299921297 304.7723787360833 793.7225 303.64477 Z M 792.3518700000001 524.89257 C 792.3470596631172 528.8980913529881 789.1011513330662 532.1440131028336 785.09563 532.14884 L 613.02293 532.14884 C 609.0161759498272 532.1481666944695 605.7680301549701 528.9005938690426 605.76665 524.89384 L 605.76665 307.20593 C 605.7721143824496 303.2006644401617 609.0176644326349 299.95511886272277 613.02293 299.94966000000005 L 785.10177 299.94966000000005 C 788.0659197522866 299.9609047075456 790.7283335726273 301.76526365103064 791.83706 304.51427000000007 C 791.9425907072492 304.7820787336901 792.0336717033321 305.05535844141673 792.1099099999999 305.3329300000001 C 792.2745770933194 305.94364406067024 792.3579927792432 306.57340575898604 792.358 307.2059300000001 Z" stroke-linecap="round" />
</g>
<g transform="matrix(0.47 0 0 0.47 413.54 615.36)"  >
<path style="stroke: none; stroke-width: 1; stroke-dasharray: none; stroke-linecap: butt; stroke-dashoffset: 0; stroke-linejoin: miter; stroke-miterlimit: 4; fill: rgb(63,61,86); fill-rule: nonzero; opacity: 1;" vector-effect="non-scaling-stroke"  transform=" translate(-731.89, -345.13)" d="M 757.80705 349.27241 L 705.97631 349.27241 C 704.4933333177715 349.27471296637117 703.1220199806417 348.48487665303594 702.3798660354172 347.2009636243322 C 701.6377120901927 345.91705059562844 701.6377120901927 344.3345394043715 702.3798660354172 343.0506263756678 C 703.1220199806417 341.766713346964 704.4933333177715 340.9768770336288 705.97631 340.97918 L 757.80705 340.97918 C 759.2900266822285 340.9768770336288 760.6613400193584 341.766713346964 761.4034939645828 343.0506263756678 C 762.1456479098073 344.3345394043715 762.1456479098073 345.91705059562844 761.4034939645828 347.2009636243322 C 760.6613400193584 348.48487665303594 759.2900266822285 349.27471296637117 757.80705 349.27241 Z" stroke-linecap="round" />
</g>
<g transform="matrix(0.47 0 0 0.47 413.54 625.51)"  >
<path style="stroke: none; stroke-width: 1; stroke-dasharray: none; stroke-linecap: butt; stroke-dashoffset: 0; stroke-linejoin: miter; stroke-miterlimit: 4; fill: rgb(63,61,86); fill-rule: nonzero; opacity: 1;" vector-effect="non-scaling-stroke"  transform=" translate(-731.89, -366.89)" d="M 757.80705 371.04122 L 705.97631 371.04122 C 704.4933333177715 371.0435229663712 703.1220199806417 370.25368665303597 702.3798660354172 368.9697736243322 C 701.6377120901927 367.68586059562847 701.6377120901927 366.10334940437156 702.3798660354172 364.8194363756678 C 703.1220199806417 363.53552334696406 704.4933333177715 362.7456870336288 705.97631 362.74799 L 757.80705 362.74799 C 759.2900266822285 362.7456870336288 760.6613400193584 363.53552334696406 761.4034939645828 364.8194363756678 C 762.1456479098073 366.10334940437156 762.1456479098073 367.68586059562847 761.4034939645828 368.9697736243322 C 760.6613400193584 370.25368665303597 759.2900266822285 371.0435229663712 757.80705 371.04122 Z" stroke-linecap="round" />
</g>
<g transform="matrix(0.47 0 0 0.47 380.25 620.65)"  >
<path style="stroke: none; stroke-width: 1; stroke-dasharray: none; stroke-linecap: butt; stroke-dashoffset: 0; stroke-linejoin: miter; stroke-miterlimit: 4; fill: rgb(108,99,255); fill-rule: nonzero; opacity: 1;" vector-effect="non-scaling-stroke"  transform=" translate(-660.44, -356.42)" d="M 679.38237 383.43638 L 641.50469 383.43638 C 638.9293654518359 383.4336627216942 636.8423317578703 381.34662455398285 636.83962 378.7713 L 636.83962 334.07271 C 636.8423317578703 331.4973854460171 638.9293654518359 329.4103472783058 641.50469 329.40763 L 679.38237 329.40763 C 681.9576984534069 329.410341767789 684.044738232211 331.4973815465931 684.04745 334.07271 L 684.04745 378.7713 C 684.044738232211 381.3466284534069 681.9576984534069 383.43366823221095 679.38237 383.43638 Z" stroke-linecap="round" />
</g>
<g transform="matrix(0.47 0 0 0.47 398.2 646.27)"  >
<path style="stroke: none; stroke-width: 1; stroke-dasharray: none; stroke-linecap: butt; stroke-dashoffset: 0; stroke-linejoin: miter; stroke-miterlimit: 4; fill: rgb(204,204,204); fill-rule: nonzero; opacity: 1;" vector-effect="non-scaling-stroke"  transform=" translate(-698.88, -411.47)" d="M 757.44736 415.61577 L 640.31019 415.61577 C 638.0200750106567 415.61577 636.16357 413.75926498934336 636.16357 411.46915 C 636.16357 409.1790350106566 638.0200750106567 407.32253 640.31019 407.32253 L 757.44736 407.32253 C 759.7374749893434 407.32253 761.59398 409.1790350106566 761.59398 411.46914999999996 C 761.59398 413.75926498934336 759.7374749893434 415.61577 757.44736 415.61577 Z" stroke-linecap="round" />
</g>
<g transform="matrix(0.47 0 0 0.47 398.2 656.41)"  >
<path style="stroke: none; stroke-width: 1; stroke-dasharray: none; stroke-linecap: butt; stroke-dashoffset: 0; stroke-linejoin: miter; stroke-miterlimit: 4; fill: rgb(204,204,204); fill-rule: nonzero; opacity: 1;" vector-effect="non-scaling-stroke"  transform=" translate(-698.89, -433.24)" d="M 757.44736 437.38454 L 640.31019 437.38454 C 638.0225921171516 437.38098750921705 636.1700094235011 435.52552564124045 636.1700094235011 433.237925 C 636.1700094235011 430.9503243587596 638.0225921171516 429.094862490783 640.31019 429.09131 L 757.44736 429.09131 C 758.9303366822285 429.08900703362883 760.3016500193584 429.87884334696406 761.0438039645828 431.1627563756678 C 761.7859579098073 432.44666940437156 761.7859579098073 434.0291805956285 761.0438039645828 435.3130936243322 C 760.3016500193584 436.597006653036 758.9303366822285 437.3868429663712 757.44736 437.38454 Z" stroke-linecap="round" />
</g>
<g transform="matrix(0.47 0 0 0.47 398.2 666.54)"  >
<path style="stroke: none; stroke-width: 1; stroke-dasharray: none; stroke-linecap: butt; stroke-dashoffset: 0; stroke-linejoin: miter; stroke-miterlimit: 4; fill: rgb(204,204,204); fill-rule: nonzero; opacity: 1;" vector-effect="non-scaling-stroke"  transform=" translate(-698.89, -455.01)" d="M 757.44736 459.15331 L 640.31019 459.15331 C 638.0225921171516 459.149757509217 636.1700094235011 457.2942956412404 636.1700094235011 455.006695 C 636.1700094235011 452.71909435875955 638.0225921171516 450.86363249078295 640.31019 450.86008 L 757.44736 450.86008 C 758.9303366822285 450.8577770336288 760.3016500193584 451.647613346964 761.0438039645828 452.9315263756678 C 761.7859579098073 454.2154394043715 761.7859579098073 455.79795059562844 761.0438039645828 457.0818636243322 C 760.3016500193584 458.36577665303594 758.9303366822285 459.15561296637117 757.44736 459.15331 Z" stroke-linecap="round" />
</g>
<g transform="matrix(0.47 0 0 0.47 398.2 676.68)"  >
<path style="stroke: none; stroke-width: 1; stroke-dasharray: none; stroke-linecap: butt; stroke-dashoffset: 0; stroke-linejoin: miter; stroke-miterlimit: 4; fill: rgb(204,204,204); fill-rule: nonzero; opacity: 1;" vector-effect="non-scaling-stroke"  transform=" translate(-698.89, -476.78)" d="M 757.44736 480.92212 L 640.31019 480.92212 C 638.0225921171516 480.91856750921704 636.1700094235011 479.06310564124044 636.1700094235011 476.775505 C 636.1700094235011 474.4879043587596 638.0225921171516 472.632442490783 640.31019 472.62889 L 757.44736 472.62889 C 758.9303366822285 472.6265870336288 760.3016500193584 473.41642334696405 761.0438039645828 474.7003363756678 C 761.7859579098073 475.98424940437155 761.7859579098073 477.56676059562847 761.0438039645828 478.8506736243322 C 760.3016500193584 480.13458665303597 758.9303366822285 480.9244229663712 757.44736 480.92212 Z" stroke-linecap="round" />
</g>
<g transform="matrix(0.47 0 0 0.47 398.2 686.83)"  >
<path style="stroke: none; stroke-width: 1; stroke-dasharray: none; stroke-linecap: butt; stroke-dashoffset: 0; stroke-linejoin: miter; stroke-miterlimit: 4; fill: rgb(204,204,204); fill-rule: nonzero; opacity: 1;" vector-effect="non-scaling-stroke"  transform=" translate(-698.89, -498.54)" d="M 757.44736 502.6909 L 640.31019 502.6909 C 638.0225921171516 502.68734750921703 636.1700094235011 500.83188564124043 636.1700094235011 498.544285 C 636.1700094235011 496.25668435875957 638.0225921171516 494.40122249078297 640.31019 494.39767 L 757.44736 494.39767 C 758.9303366822285 494.3953670336288 760.3016500193584 495.18520334696404 761.0438039645828 496.4691163756678 C 761.7859579098073 497.75302940437155 761.7859579098073 499.33554059562846 761.0438039645828 500.6194536243322 C 760.3016500193584 501.90336665303596 758.9303366822285 502.6932029663712 757.44736 502.6909 Z" stroke-linecap="round" />
</g>
<g transform="matrix(0.47 0 0 0.47 444.69 583.87)" id="bb95e310-3287-4bad-95b8-3adafab6ad5a"  >
<circle style="stroke: none; stroke-width: 1; stroke-dasharray: none; stroke-linecap: butt; stroke-dashoffset: 0; stroke-linejoin: miter; stroke-miterlimit: 4; fill: rgb(108,99,255); fill-rule: nonzero; opacity: 1;" vector-effect="non-scaling-stroke"  cx="0" cy="0" r="59.36195" />
</g>
<g transform="matrix(0.47 0 0 0.47 444.1 599.59)"  >
<circle style="stroke: none; stroke-width: 1; stroke-dasharray: none; stroke-linecap: butt; stroke-dashoffset: 0; stroke-linejoin: miter; stroke-miterlimit: 4; fill: rgb(255,255,255); fill-rule: nonzero; opacity: 1;" vector-effect="non-scaling-stroke"  cx="0" cy="0" r="6.98485" />
</g>
<g transform="matrix(0.47 0 0 0.47 446.35 580.64)"  >
<path style="stroke: none; stroke-width: 1; stroke-dasharray: none; stroke-linecap: butt; stroke-dashoffset: 0; stroke-linejoin: miter; stroke-miterlimit: 4; fill: rgb(255,255,255); fill-rule: nonzero; opacity: 1;" vector-effect="non-scaling-stroke"  transform=" translate(-796.97, -267.65)" d="M 796.82618 238.34254 C 785.8770635399741 238.45115069824075 777.0052404984264 247.25827183104067 776.81649 258.2063 C 776.81506 258.30708 776.81439 259.01571 776.8144900000001 259.94253 C 776.8146446015569 262.772330897789 779.1085191173845 265.0663486736086 781.9383200000001 265.06667999999996 L 781.9383200000001 265.06667999999996 C 784.7702003599375 265.0660559866418 787.0653886268395 262.7698603611192 787.0647700000001 259.93798 L 787.0647700000001 259.93467 C 787.06425 259.3042 787.06393 258.86782999999997 787.06393 258.84103999999996 C 787.0629575924205 254.18092552779115 790.3701385075836 250.17610745511323 794.94635970237 249.29584191787214 C 799.5225808971564 248.41557638063108 804.0794877092522 250.90768667248028 805.8074218964306 255.23560895510587 C 807.5353560836089 259.5635312377314 805.9478481393785 264.50881504433664 802.02371 267.02234 L 802.0254900000001 267.0245 C 802.0254900000001 267.0245 794.7326400000001 271.7195 792.5092500000001 278.1601 L 792.5111400000001 278.16055 C 792.1201705530025 279.4799693294106 791.922060362055 280.84899367369144 791.9229600000001 282.22512 C 791.9229600000001 282.7908 791.9562400000001 287.74033000000003 792.0205400000001 291.75758 C 792.0673202158803 294.6415304123608 794.4189002832481 296.9547342514041 797.3032300000001 296.95406 L 797.3032300000001 296.95406 C 798.704519889561 296.954004305644 800.0483944688432 296.3972906506282 801.0392166695203 295.4063896846721 C 802.0300388701975 294.415488718716 802.5866456965698 293.07156988956086 802.5865900000001 291.67028000000005 L 802.5864900000001 291.63788000000005 C 802.5641600000001 287.95882000000006 802.5520800000002 283.67488000000003 802.5520800000002 283.3639600000001 C 802.5520800000002 279.4092100000001 806.3672100000001 275.46884000000006 809.5010800000001 272.89922000000007 C 813.1285335340358 269.96136039793265 815.6780689418906 265.90240404923014 816.7496900000001 261.3591600000001 C 816.9804965774158 260.4226731192118 817.1077627294786 259.4636716409289 817.1292000000001 258.4994000000001 C 817.1292026521659 253.15332604726333 815.0054849025804 248.02621245789882 811.2252406955571 244.24596637551159 C 807.4449964885338 240.46572029312432 802.3178839527375 238.34199999999933 796.97181 238.342 Q 796.899 238.342 796.82618 238.34254 Z" stroke-linecap="round" />
</g>
<g transform="matrix(0.74 0 0 0.74 635.31 810.36)"  >
<path style="stroke: none; stroke-width: 1; stroke-dasharray: none; stroke-linecap: butt; stroke-dashoffset: 0; stroke-linejoin: miter; stroke-miterlimit: 4; fill: rgb(108,99,255); fill-rule: nonzero; opacity: 1;" vector-effect="non-scaling-stroke"  transform=" translate(-737.1, -554.33)" d="M 768.68886 610.5808 C 771.0284085372936 611.4451462809204 773.6531571195686 610.9640342731038 775.53404 609.3260899999999 L 786.36581 599.8792799999999 C 789.199416279162 597.4029439551308 789.4933822148389 593.1000526911679 787.02289 590.2613499999999 L 708.28608 499.98050999999987 C 705.8098111055622 497.14700736576407 701.5070920378505 496.8529832263209 698.6683899999999 499.3232899999999 L 687.8362299999999 508.77045999999984 C 685.0030837369886 511.2468632640514 684.7092149698371 515.5493095887657 687.1793299999999 518.3879399999998 L 765.9160499999999 608.6691899999998 C 766.664717026375 609.5295894912841 767.6184439430357 610.1871007925121 768.68886 610.5808 Z" stroke-linecap="round" />
</g>
<g transform="matrix(0.74 0 0 0.74 541.53 748.3)"  >
<path style="stroke: none; stroke-width: 1; stroke-dasharray: none; stroke-linecap: butt; stroke-dashoffset: 0; stroke-linejoin: miter; stroke-miterlimit: 4; fill: rgb(108,99,255); fill-rule: nonzero; opacity: 1;" vector-effect="non-scaling-stroke"  transform=" translate(-610.54, -470.58)" d="M 660.473 511.23637 C 661.1816651845418 511.2356549244708 661.8859276555693 511.12497474622285 662.56065 510.90828000000005 C 664.2851581647271 510.3634189650884 665.7199380481242 509.15115527819455 666.5450500000001 507.54181000000005 L 673.1313500000001 494.76720000000006 C 674.8524011224321 491.42077115194763 673.5393108084797 487.31271777334706 670.1963500000002 485.5849400000001 L 563.72265 430.68962 C 560.3760689893004 428.9689030569318 556.2681587903999 430.28201313644365 554.54016 433.62484 L 547.95386 446.39946000000003 C 546.2328097012867 449.745885924478 547.5459004668612 453.8539362420919 550.8888599999999 455.58171000000004 L 657.36256 510.477 C 658.3237887897963 510.97505981184423 659.3903996441998 511.2354577891428 660.473 511.23637 Z" stroke-linecap="round" />
</g>
<g transform="matrix(0.74 0 0 0.74 563.19 759.09)"  >
<path style="stroke: none; stroke-width: 1; stroke-dasharray: none; stroke-linecap: butt; stroke-dashoffset: 0; stroke-linejoin: miter; stroke-miterlimit: 4; fill: rgb(47,46,65); fill-rule: nonzero; opacity: 1;" vector-effect="non-scaling-stroke"  transform=" translate(-639.79, -485.14)" d="M 662.39257 514.3266 C 664.97581777809 514.3262390528268 667.3382701051142 512.8698605367431 668.49909 510.56212 L 674.9470200000001 497.71711999999997 C 675.6756567062266 496.2685928064073 675.8630022312194 494.607459884163 675.4753000000001 493.03302999999994 C 675.4325 492.85947999999996 675.38305 492.68544999999995 675.3257600000001 492.5128399999999 L 675.3257600000001 492.5128399999999 C 675.1954700000001 492.1205599999999 675.05376 491.50859999999994 674.8899700000001 490.80011999999994 C 674.3674000000001 488.54056999999995 673.71716 485.72849999999994 672.3917200000001 485.06328999999994 L 625.6071900000001 456.70628999999997 C 622.2547853748099 454.99748882891737 618.1518673527254 456.3298885257488 616.4430600000001 459.68228999999997 L 616.4232700000001 459.72139999999996 L 604.622 484.04622 C 602.9410617338409 487.410378995941 604.2991497537157 491.5003819382989 607.6585 493.19091000000003 L 659.38816 513.61383 C 660.3201777394066 514.0829151486503 661.3491631973545 514.3270329504355 662.39257 514.3266 Z" stroke-linecap="round" />
</g>
<g transform="matrix(0.74 0 0 0.74 594.34 695.38)"  >
<circle style="stroke: none; stroke-width: 1; stroke-dasharray: none; stroke-linecap: butt; stroke-dashoffset: 0; stroke-linejoin: miter; stroke-miterlimit: 4; fill: rgb(108,99,255); fill-rule: nonzero; opacity: 1;" vector-effect="non-scaling-stroke"  cx="0" cy="0" r="52.11755" />
</g>
<g transform="matrix(0.74 0 0 0.74 607.2 890.47)"  >
<path style="stroke: none; stroke-width: 1; stroke-dasharray: none; stroke-linecap: butt; stroke-dashoffset: 0; stroke-linejoin: miter; stroke-miterlimit: 4; fill: rgb(108,99,255); fill-rule: nonzero; opacity: 1;" vector-effect="non-scaling-stroke"  transform=" translate(-699.16, -662.42)" d="M 691.973 730.11079 L 706.34575 730.11079 C 710.1087429278333 730.106568576802 713.1581985768021 727.0571129278333 713.16242 723.2941199999999 L 713.16242 601.55444 C 713.1581985768021 597.7914470721666 710.1087429278333 594.7419914231979 706.34575 594.73777 L 691.973 594.73777 C 688.2100070721666 594.7419914231979 685.1605514231978 597.7914470721666 685.1563299999999 601.55444 L 685.1563299999999 723.29412 C 685.160551423198 727.0571129278334 688.2100070721666 730.106568576802 691.973 730.11079 Z" stroke-linecap="round" />
</g>
<g transform="matrix(0.74 0 0 0.74 577.47 854.39)"  >
<path style="stroke: none; stroke-width: 1; stroke-dasharray: none; stroke-linecap: butt; stroke-dashoffset: 0; stroke-linejoin: miter; stroke-miterlimit: 4; fill: rgb(108,99,255); fill-rule: nonzero; opacity: 1;" vector-effect="non-scaling-stroke"  transform=" translate(-659.05, -613.73)" d="M 630.04545 673.4505 C 632.2486448201674 673.4547393981433 634.3178827619256 672.3932818496507 635.59969 670.60134 L 705.27424 573.1555900000001 C 707.4599174166256 570.0921939375604 706.7529095123053 565.8375883189701 703.69394 563.6457200000001 L 692.002 555.28606 C 688.9387027427335 553.1001662342753 684.6839788476229 553.8070908909685 682.49213 556.86613 L 612.8176 654.31141 C 610.6324099418986 657.3749718223752 611.3394758871962 661.6292536997008 614.39815 663.82128 L 626.09006 672.18147 C 627.243295278033 673.00786013328 628.6266932165631 673.4517034675487 630.04545 673.4505 Z" stroke-linecap="round" />
</g>
<g transform="matrix(0.74 0 0 0.74 563.75 908.54)"  >
<path style="stroke: none; stroke-width: 1; stroke-dasharray: none; stroke-linecap: butt; stroke-dashoffset: 0; stroke-linejoin: miter; stroke-miterlimit: 4; fill: rgb(108,99,255); fill-rule: nonzero; opacity: 1;" vector-effect="non-scaling-stroke"  transform=" translate(-640.53, -686.81)" d="M 648.52979 728.30154 C 649.9627042358463 728.277094883909 651.3709837816455 727.9247804106482 652.64661 727.2716200000001 L 665.51347 720.8657700000001 C 668.87806 719.1901300000001 670.73201 716.0528300000001 669.64622 713.8722100000001 L 636.48506 647.26412 C 635.39927 645.0835000000001 631.77906 644.67173 628.41356 646.3464200000001 L 615.54694 652.7522700000001 C 614.0473955804943 653.4636076664262 612.7716565897628 654.5725782361385 611.85853 655.95852 C 611.0520995790442 657.0539323446485 610.8831211016056 658.4934307197518 611.41395 659.74582 L 644.57511 726.35392 C 645.21084 727.63109 646.716 728.30154 648.52979 728.30154 Z" stroke-linecap="round" />
</g>
<g transform="matrix(0.74 0 0 0.74 611.91 783.84)"  >
<path style="stroke: none; stroke-width: 1; stroke-dasharray: none; stroke-linecap: butt; stroke-dashoffset: 0; stroke-linejoin: miter; stroke-miterlimit: 4; fill: rgb(47,46,65); fill-rule: nonzero; opacity: 1;" vector-effect="non-scaling-stroke"  transform=" translate(-705.52, -518.54)" d="M 711.0818 551.57347 C 713.5600528181276 552.4793462775203 716.3383836515784 551.878259418155 718.2205700000001 550.0290100000001 L 737.7198500000001 531.31937 C 739.0084586037308 530.0515838544379 739.7406580266511 528.3238218282434 739.755370284094 526.5161776724514 C 739.770082541537 524.7085335166594 739.0661024614437 522.9690825512922 737.7983 521.6804900000001 L 737.79289 521.6750000000001 L 696.3492900000001 485.84477000000004 C 695.3373800000002 484.81377000000003 692.4611800000001 485.06255000000004 690.15087 485.26069000000007 C 689.42587 485.3232100000001 688.7998200000001 485.37709000000007 688.3860800000001 485.37379000000004 C 688.20468 485.3724 688.0239900000001 485.37885000000006 687.84544 485.39171000000005 L 687.84544 485.39171000000005 C 686.228015214891 485.5077592303909 684.7051978308261 486.1975897036498 683.55132 487.33693000000005 L 673.3167900000001 497.42708000000005 C 670.640175036943 500.07216982910205 670.6095193473861 504.38465549068684 673.2482600000001 507.06753000000003 L 708.55182 549.9290900000001 C 709.2629265888513 550.6578589022338 710.1270769279233 551.219520075272 711.0818 551.57347 Z" stroke-linecap="round" />
</g>
<g transform="matrix(0.74 0 0 0.74 570.81 697.41)"  >
<path style="stroke: none; stroke-width: 1; stroke-dasharray: none; stroke-linecap: butt; stroke-dashoffset: 0; stroke-linejoin: miter; stroke-miterlimit: 4; fill: rgb(47,46,65); fill-rule: nonzero; opacity: 1;" vector-effect="non-scaling-stroke"  transform=" translate(-650.06, -401.9)" d="M 656.75132 418.48174 L 656.80552 416.53412000000003 C 653.18226 416.43331 649.9879 416.20603000000006 647.5876 414.45241000000004 C 646.2106426739575 413.38922657442924 645.3642190880018 411.7796968289801 645.2686 410.04268 C 645.183134273768 408.9794991531402 645.5982375833098 407.9372557343197 646.39124 407.22395 C 647.9846200000001 405.87831 650.5484200000001 406.31386 652.41717 407.1707 L 654.02862 407.90962 L 650.93839 385.32652 L 649.00883 385.59090000000003 L 651.63736 404.80084000000005 C 649.09823 404.05431000000004 646.7454799999999 404.37575000000004 645.1340399999999 405.73661000000004 C 643.8797816622604 406.83159980196484 643.20955430121 408.44999671524675 643.3224099999999 410.11115000000007 C 643.4375053673785 412.4458478231498 644.5781051654059 414.6104503169069 646.4387899999999 416.0253400000001 C 649.52286 418.27918 653.5308 418.39143 656.75132 418.48174 Z" stroke-linecap="round" />
</g>
<g transform="matrix(0.74 0 0 0.74 559.07 687.27)"  >
<rect style="stroke: none; stroke-width: 1; stroke-dasharray: none; stroke-linecap: butt; stroke-dashoffset: 0; stroke-linejoin: miter; stroke-miterlimit: 4; fill: rgb(47,46,65); fill-rule: nonzero; opacity: 1;" vector-effect="non-scaling-stroke"  x="-5.245" y="-0.975" rx="0" ry="0" width="10.49" height="1.95" />
</g>
<g transform="matrix(0.74 0 0 0.74 583.61 687.27)"  >
<rect style="stroke: none; stroke-width: 1; stroke-dasharray: none; stroke-linecap: butt; stroke-dashoffset: 0; stroke-linejoin: miter; stroke-miterlimit: 4; fill: rgb(47,46,65); fill-rule: nonzero; opacity: 1;" vector-effect="non-scaling-stroke"  x="-5.245" y="-0.975" rx="0" ry="0" width="10.49" height="1.95" />
</g>
<g transform="matrix(0.74 0 0 0.74 582.84 817.68)"  >
<path style="stroke: none; stroke-width: 1; stroke-dasharray: none; stroke-linecap: butt; stroke-dashoffset: 0; stroke-linejoin: miter; stroke-miterlimit: 4; fill: rgb(47,46,65); fill-rule: nonzero; opacity: 1;" vector-effect="non-scaling-stroke"  transform=" translate(-666.3, -564.2)" d="M 609.74912 656.69879 L 666.6016599999999 492.83844 C 664.7666599999999 490.35760999999997 663.5357399999999 485.8675 663.5328099999999 480.72168 L 663.5328099999999 476.3631 C 663.53721 468.54346 666.36826 462.20655 669.8628899999999 462.19775999999996 L 691.2867199999998 462.19775999999996 C 694.7808599999998 462.20654999999994 697.6123999999999 468.54346 697.6163099999999 476.3631 L 697.6163099999999 480.72168 C 697.6133799999999 486.38903999999997 696.1216799999999 491.26355 693.9727599999999 493.52868 L 722.8340799999999 602.69884 C 723.9738296425495 604.656178269728 723.9782878228468 607.0739483851726 722.8457642656127 609.0354765501866 C 721.7132407083785 610.9970047152007 719.6171292631376 612.2019731860073 717.3521499999998 612.19353 L 615.2310599999998 666.19353 C 612.9696648709026 666.1934657766002 610.8800686380148 664.9870168720792 609.7493435102155 663.0286071551424 C 608.6186183824161 661.0701974382056 608.6185331817121 658.6573295660543 609.7491199999998 656.69884 Z" stroke-linecap="round" />
</g>
<g transform="matrix(0.74 0 0 0.74 395.56 634.43)"  >
<path style="stroke: none; stroke-width: 1; stroke-dasharray: none; stroke-linecap: butt; stroke-dashoffset: 0; stroke-linejoin: miter; stroke-miterlimit: 4; fill: rgb(63,61,86); fill-rule: nonzero; opacity: 1;" vector-effect="non-scaling-stroke"  transform=" translate(-436.85, -313.98)" d="M 505.01377 453.78894 C 503.49641253299455 452.9357135476132 502.0293285525928 451.99601520700287 500.61977 450.97449 C 485.46645 439.98084 467.58754 434.88904 450.27968000000004 436.63269 C 419.0800204692052 439.75344713344845 387.7687602788903 431.89567172938314 361.73968 414.41297000000003 C 300.22625000000005 373.03064 283.84832 289.31824000000006 325.23068 227.80457000000004 C 366.61276 166.29139000000004 450.32492 149.91297000000003 511.83907999999997 191.29578000000004 C 564.3368770078364 226.71118888423055 585.0724466725733 293.9154404114977 561.6562200000001 352.7537799999999 C 556.4844177875093 365.4868026755198 557.6206848313791 379.9132147264032 564.72213 391.67956000000004 C 572.0130559393945 403.5177180950512 573.3504361727986 418.0836900489696 568.3370860069128 431.05156991621743 C 563.3237358410272 444.01944978346535 552.536182390042 453.8979524733053 539.17819 457.75329000000005 C 535.1428423823432 458.9219970559167 530.9631074290417 459.5170245367166 526.76193 459.52087000000006 L 526.76193 459.52087000000006 C 519.1412619109554 459.504483597162 511.65256343542137 457.5307674090859 505.01377 453.78894 Z M 327.71983 229.47937 C 295.60506157284254 277.21675763661483 298.2658801290241 340.2916766372162 334.2870034814821 385.15474833237977 C 370.30812683394004 430.0178200275433 431.31848352953455 446.2431624953516 484.86682999999994 425.20056 L 486.41248 424.59265 L 486.85999000000004 426.19226 C 493.0443365574178 448.2659188913384 515.9519761086616 461.14675155741776 538.0256350000001 454.962405 C 560.0992938913384 448.77805844258216 572.9801265574179 425.8704188913384 566.79578 403.79675999999995 C 563.7222850076251 392.91194898227786 556.3598013012997 383.7421682802627 546.3961300000001 378.3895299999999 L 544.93275 377.6072999999999 L 545.8587500000001 376.2293699999999 C 586.3539770042044 315.9926436323242 570.3642943598159 234.33474222270524 510.14063245131206 193.82008857804854 C 449.91697054280814 153.30543493339184 368.25391607028956 169.26877881585472 327.7198400000001 229.4793699999999 Z" stroke-linecap="round" />
</g>
<g transform="matrix(0.74 0 0 0.74 625.94 675.53)"  >
<path style="stroke: none; stroke-width: 1; stroke-dasharray: none; stroke-linecap: butt; stroke-dashoffset: 0; stroke-linejoin: miter; stroke-miterlimit: 4; fill: rgb(47,46,65); fill-rule: nonzero; opacity: 1;" vector-effect="non-scaling-stroke"  transform=" translate(-724.44, -372.4)" d="M 705.32513 376.39087 C 703.6750699999999 372.74804 699.8117599999999 371.23677 696.0093199999999 371.07578 C 691.1285299999998 370.86913 686.6319899999999 372.96666 682.2167299999999 374.77978 C 677.6570499999999 376.6522 672.9889799999999 378.17978 667.9949699999999 377.79465 C 663.5637812888192 377.4466019674733 659.2954818482857 375.96988484922804 655.5966099999998 373.50515 C 648.1626183403939 368.6679307641113 643.9985494575021 360.1283019705208 644.7652399999998 351.29229000000004 C 645.5657699999998 342.67029 650.6036799999998 334.39657000000005 658.6296299999998 330.74829000000005 C 667.9498217342672 326.55803594358133 678.8655837826122 328.27179700307335 686.4532899999998 335.1165700000001 L 683.8926299999998 336.17723000000007 C 682.8269999999998 325.5373900000001 688.6139199999998 315.41760000000005 696.7325199999998 308.9238000000001 C 705.2968299999998 302.0734900000001 716.2519399999998 298.1134400000001 726.9906999999998 296.3558000000001 C 738.028777086758 294.418125386699 749.376206836187 295.2720229731486 760 298.83976 C 768.8424763902237 301.9884427470733 776.9038260589649 307.00311674758956 783.63661 313.54324 C 797.7951843760012 327.24899543296493 805.2665029015673 346.4517930431098 804.09387 366.12253 C 803.4742590845132 376.4026027301275 800.7377932100827 386.4438620429584 796.056 395.6169 C 791.3839012012863 404.5867685568161 784.9906423645916 412.54845994778753 777.2413200000001 419.04731 C 761.81554 432.19117 742.7000200000001 439.95545999999996 723.8643200000001 446.81978 Q 720.3487200000002 448.10096 716.8226200000001 449.35303999999996 C 715.0008300000002 450.00278 714.2166800000001 447.10517 716.0251000000002 446.4602 C 734.1966200000002 439.97938 752.6945500000002 433.24565 768.5618000000002 422.01331999999996 C 776.4202494617574 416.5835494148056 783.2598389820241 409.8107827115716 788.7665000000002 402.00602 C 794.3568954229402 393.8257571361485 798.1882295854049 384.574025813761 800.018 374.83641 C 805.6955170584334 346.65777613495476 792.0280484321592 318.12533182481525 766.51207 304.88885 C 757.5364215088526 300.3429834101002 747.5703244650862 298.1029669776192 737.51272 298.37085 C 726.5951070591943 298.5684182419386 715.8714543512154 301.29082727831826 706.1816699999999 306.32485 C 697.20544 311.07217 689.38456 318.67097 687.2429099999999 328.92485000000005 C 686.7556373808775 331.3101386052678 686.6374942331356 333.7561031062194 686.89261 336.1772500000001 C 687.02999 337.5489600000001 685.2022499999999 338.0498100000001 684.33195 337.23791000000006 C 678.0430287599518 331.62053703053306 669.1620844718012 329.9442521615255 661.25824 332.88273000000004 C 653.55772 335.73703000000006 648.44383 343.41147000000007 647.74915 351.46531000000004 C 647.0296020296079 359.67942254049854 651.1487499683428 367.5630003511158 658.30255 371.66331 C 661.813726339721 373.76128440048456 665.8288805777844 374.8660088166643 669.91909 374.85947000000004 C 674.6943 374.81424000000004 679.09353 372.83765000000005 683.43294 371.05447000000004 C 688.0701 369.1489 692.77522 367.56090000000006 697.8489400000001 368.24734000000007 C 702.01538 368.81102000000004 706.1122700000001 370.89576000000005 707.91551 374.8767700000001 C 708.70599 376.62191000000007 706.1213700000001 378.1488300000001 705.3251 376.3909300000001 Z" stroke-linecap="round" />
</g>
<g transform="matrix(0.45 0 0 0.45 553.45 945.88)"  >
<path style="stroke: none; stroke-width: 1; stroke-dasharray: none; stroke-linecap: butt; stroke-dashoffset: 0; stroke-linejoin: miter; stroke-miterlimit: 4; fill: rgb(63,61,86); fill-rule: nonzero; opacity: 1;" vector-effect="non-scaling-stroke"  transform=" translate(-672.79, -730.37)" d="M 449.13837 731.55809 L 896.43237 731.55809 C 897.0886200187651 731.5561881715289 897.6196093659912 731.0236577745319 897.6196093659912 730.367405 C 897.6196093659912 729.7111522254681 897.0886200187651 729.1786218284711 896.43237 729.17672 L 449.13837 729.17672 C 448.48211998123486 729.1786218284711 447.95113063400885 729.7111522254681 447.95113063400885 730.367405 C 447.95113063400885 731.0236577745319 448.48211998123486 731.5561881715289 449.13837 731.55809 Z" stroke-linecap="round" />
</g>
</svg>