<?xml version="1.0" encoding="UTF-8" standalone="no" ?>
<!DOCTYPE svg PUBLIC "-//W3C//DTD SVG 1.1//EN" "http://www.w3.org/Graphics/SVG/1.1/DTD/svg11.dtd">
<svg xmlns="http://www.w3.org/2000/svg" xmlns:xlink="http://www.w3.org/1999/xlink" version="1.1" width="1080" height="1080" viewBox="0 0 1080 1080" xml:space="preserve">
<desc>Created with Fabric.js 5.2.4</desc>
<defs>
</defs>
<rect x="0" y="0" width="100%" height="100%" fill="transparent"></rect>
<g transform="matrix(1 0 0 1 540 540)" id="ddb92e9e-d47f-491e-a1a0-704d1b0ceccb"  >
</g>
<g transform="matrix(1 0 0 1 540 540)" id="70d8cddb-47af-4049-91cc-cac5a55a3ade"  >
<rect style="stroke: none; stroke-width: 1; stroke-dasharray: none; stroke-linecap: butt; stroke-dashoffset: 0; stroke-linejoin: miter; stroke-miterlimit: 4; fill: rgb(255,255,255); fill-rule: nonzero; opacity: 1; visibility: hidden;" vector-effect="non-scaling-stroke"  x="-540" y="-540" rx="0" ry="0" width="1080" height="1080" />
</g>
<g transform="matrix(1 0 0 1 1322.01 254.88)"  >
<path style="stroke: none; stroke-width: 1; stroke-dasharray: none; stroke-linecap: butt; stroke-dashoffset: 0; stroke-linejoin: miter; stroke-miterlimit: 4; fill: rgb(108,99,255); fill-rule: nonzero; opacity: 1;" vector-effect="non-scaling-stroke"  transform=" translate(-722.17, -271.4)" d="M 722.17412 151.15412 C 685.1710417613368 151.15412 655.17412 181.15104176133684 655.17412 218.15412 L 655.17412 218.15412 C 655.17412 255.15412 725.3741200000001 391.65412000000003 725.3741200000001 391.65412000000003 C 725.3741200000001 391.65412000000003 789.17412 255.17412000000004 789.17412 218.16412000000003 C 789.1767723628302 200.39461512010433 782.1204076610519 183.35184927248224 769.5573456259202 170.7850365097688 C 756.9942835907885 158.21822374705533 739.9536248799548 151.1567719669847 722.18412 151.15412000000003 Z M 722.17412 262.83412 C 702.7889252809391 262.83412 687.07412 247.1193147190608 687.07412 227.73411999999996 C 687.07412 208.3489252809391 702.7889252809392 192.63411999999997 722.17412 192.63412 C 741.5593147190609 192.63412 757.27412 208.34892528093917 757.27412 227.73412000000002 L 757.27412 227.73412 C 757.27412 237.043218793368 753.5760949031738 245.9710411361218 746.9935680196478 252.5535680196478 C 740.4110411361219 259.13609490317384 731.483218793368 262.83412 722.17412 262.83412 Z" stroke-linecap="round" />
</g>
<g transform="matrix(0.88 0 0 0.88 705.29 574.76)"  >
<path style="stroke: none; stroke-width: 1; stroke-dasharray: none; stroke-linecap: butt; stroke-dashoffset: 0; stroke-linejoin: miter; stroke-miterlimit: 4; fill: rgb(242,242,242); fill-rule: nonzero; opacity: 1;" vector-effect="non-scaling-stroke"  transform=" translate(-856.29, -276.91)" d="M 929.46332 288.96816 C 929.3392779318514 303.10804364838515 928.3035321445168 317.22521273431795 926.36253 331.23179 C 926.29462 331.72369 926.22063 332.21554 926.15244 332.70739 L 793.7328699999999 331.9675 C 793.34407 331.47898999999995 792.96138 330.98461999999995 792.5905999999999 330.48434 C 791.3543199999999 328.82867999999996 790.1955999999999 327.12595999999996 789.1319499999998 325.36451 C 784.0194099999999 316.87851 781.6788399999998 306.94319 784.0243199999999 300.08837 L 784.0663199999999 299.98186 C 784.5726158200524 298.48080654433244 785.3704325280613 297.09454716939587 786.4139599999999 295.90268 C 791.7615999999998 289.88309 802.5739599999998 290.88653 812.3860099999998 295.74532 C 803.5852799999998 286.11192 796.5775999999998 273.95606 796.0451499999998 263.10555 C 795.5230699999998 252.52203 801.0571499999998 244.96149 807.0594999999998 238.53633 C 807.2564499999999 238.32393 807.4533699999998 238.11742999999998 807.6502799999998 237.91096 C 807.7458599999999 237.80474999999998 807.8471999999998 237.70445999999998 807.9424899999998 237.59823999999998 C 812.6256199999998 232.70181999999997 818.0853299999998 227.87496 825.9879299999998 228.45884999999998 C 834.6550099999998 229.10036 844.2642299999998 236.35999999999999 851.0018099999998 244.81945 C 857.7394299999997 253.27295999999998 862.2167199999998 262.87627 866.7549699999997 272.24863999999997 C 871.2990299999997 281.6151 876.2153399999997 291.22088999999994 883.5071199999998 299.22675 C 873.6308899999998 286.73461 865.6680499999998 272.52133 862.7265799999998 258.69788 C 859.7851099999998 244.87443000000002 862.3738299999998 231.59788 871.1758599999998 225.08756 C 873.8480741947358 223.17202276496494 876.9402103036648 221.924361553162 880.1935199999998 221.44898 C 880.5732399999998 221.38587 880.9589699999998 221.33463 881.3507499999998 221.28937000000002 C 889.4989699999999 220.36226000000002 899.2276999999998 223.18037 907.5051099999998 229.91660000000002 C 916.6208499999998 237.33367 922.9408599999998 248.32916 926.0854299999999 258.76723000000004 C 929.22971 269.20529 929.5648 279.254 929.46332 288.96816 Z" stroke-linecap="round" />
</g>
<g transform="matrix(0.88 0 0 0.88 667.73 609.41)"  >
<path style="stroke: none; stroke-width: 1; stroke-dasharray: none; stroke-linecap: butt; stroke-dashoffset: 0; stroke-linejoin: miter; stroke-miterlimit: 4; fill: rgb(255,255,255); fill-rule: nonzero; opacity: 1;" vector-effect="non-scaling-stroke"  transform=" translate(-813.78, -316.13)" d="M 842.82671 332.24181 L 840.2946000000001 332.22766 Q 839.0886 331.47366 837.8712300000001 330.73735 C 837.36882 330.42023 836.8605500000001 330.11491 836.3520300000001 329.80365 Q 823.7534700000001 322.10916000000003 810.9973400000001 315.04244 Q 798.2528200000002 307.96988 785.3801400000001 301.54901 C 784.9107538696459 301.3446567524627 784.6541663896804 300.83433346553267 784.7700900000001 300.33569 C 784.7792815108601 300.30403805048127 784.7935322059994 300.2740811982107 784.8122900000001 300.24698 C 784.9319800000001 300.02228 785.19951 299.92886 785.5899700000001 300.12083 C 786.6425800000001 300.64863 787.7012700000001 301.17646 788.7538200000001 301.71613 Q 801.6616500000001 308.24690000000004 814.4586900000002 315.42953 Q 827.2469200000002 322.60908 839.8894100000001 330.42244 C 840.0666200000001 330.53018 840.2440800000002 330.64386 840.4212900000001 330.7516 C 841.225 331.24836 842.023 331.74509 842.82671 332.24181 Z" stroke-linecap="round" />
</g>
<g transform="matrix(0.88 0 0 0.88 692 582.06)"  >
<path style="stroke: none; stroke-width: 1; stroke-dasharray: none; stroke-linecap: butt; stroke-dashoffset: 0; stroke-linejoin: miter; stroke-miterlimit: 4; fill: rgb(255,255,255); fill-rule: nonzero; opacity: 1;" vector-effect="non-scaling-stroke"  transform=" translate(-841.25, -285.17)" d="M 875.47515 332.42424 L 873.9093799999999 332.41549 C 873.5562299999999 331.92127999999997 873.20916 331.42706999999996 872.85602 330.93282999999997 Q 860.41015 313.48 847.9695 296.02718 Q 827.5965 267.45418 807.23568 238.88130999999998 C 807.1552129510793 238.7787755676468 807.0953859953654 238.66161430454116 807.05951 238.53631 C 806.9434200000001 238.11455999999998 807.25322 237.8672 807.65029 237.91093999999998 C 807.9889503708412 237.95931504683517 808.2903866196383 238.15116130033041 808.47761 238.43748 Q 819.8998 254.4612 831.31624 270.47301 Q 851.58317 298.90308 871.84435 327.32713 C 872.7035099999999 328.52997 873.56263 329.73871 874.42179 330.94156000000004 C 874.77494 331.43582 875.12809 331.93006 875.47515 332.42424 Z" stroke-linecap="round" />
</g>
<g transform="matrix(0.88 0 0 0.88 739.75 574.68)"  >
<path style="stroke: none; stroke-width: 1; stroke-dasharray: none; stroke-linecap: butt; stroke-dashoffset: 0; stroke-linejoin: miter; stroke-miterlimit: 4; fill: rgb(255,255,255); fill-rule: nonzero; opacity: 1;" vector-effect="non-scaling-stroke"  transform=" translate(-895.3, -276.82)" d="M 910.35778 323.33146 C 910.2778800000001 325.97024999999996 910.1032200000001 328.56698 909.87513 331.13966999999997 Q 909.80889 331.87766999999997 909.74236 332.61566999999997 L 908.0995499999999 332.60648999999995 C 908.1497999999999 332.11454 908.20004 331.62254999999993 908.2441999999999 331.13048999999995 C 908.5913399999998 327.41378 908.8376399999999 323.65502 908.8710899999999 319.79421999999994 C 908.9147793659704 309.09028509526337 907.8716341278669 298.4095679798589 905.7576999999999 287.9163599999999 C 903.5106813898554 276.6180172383917 900.2843211095428 265.53674278179795 896.1151599999998 254.79804000000001 C 891.7393478977135 243.47208875487507 886.4636171508967 232.5147233633126 880.33855 222.03099999999995 C 880.2231720555686 221.86013562032517 880.1718210512986 221.65402331353098 880.1935500000001 221.449 C 880.2613200000001 220.98082000000002 880.8847200000001 220.842 881.3507800000001 221.28939000000003 C 881.4428282868992 221.3771690826837 881.5221044671781 221.4774298371998 881.5862900000001 221.58724000000004 Q 882.7230200000001 223.54187000000005 883.81829 225.50816000000003 C 889.7175003700883 236.05009003621765 894.7668505659058 247.04556483505002 898.91835 258.39008 C 902.8726556663908 269.1639760840809 905.880543978962 280.2619778733471 907.90788 291.5581399999999 C 909.8068223491114 302.03786970988955 910.6277365624408 312.6844960998082 910.35778 323.33145999999994 Z" stroke-linecap="round" />
</g>
<g transform="matrix(0.88 0 0 0.88 415.57 754.32)"  >
<path style="stroke: none; stroke-width: 1; stroke-dasharray: none; stroke-linecap: butt; stroke-dashoffset: 0; stroke-linejoin: miter; stroke-miterlimit: 4; fill: rgb(108,99,255); fill-rule: nonzero; opacity: 1;" vector-effect="non-scaling-stroke"  transform=" translate(-528.37, -480.14)" d="M 477.97556 523.15406 C 475.4143701455078 523.1573661347858 473.05547280790853 521.7628833165126 471.82370999999995 519.51734 L 464.73508 506.572 C 462.88248593582364 503.18063368716406 464.12512997785143 498.92963135955426 467.51266999999996 497.07005 L 575.40891 437.98753 C 578.8001540518629 436.1350530532127 583.0509604370995 437.3775593606008 584.91062 440.76487 L 591.99949 453.71067 C 593.8516579945192 457.10193545778225 592.6090773150722 461.352506293775 589.2219 463.21214 L 481.32565999999997 522.29514 C 480.29904492476464 522.8588331153151 479.1467510171671 523.1542655749771 477.97556 523.15406 Z" stroke-linecap="round" />
</g>
<g transform="matrix(0.88 0 0 0.88 548.98 694.96)"  >
<path style="stroke: none; stroke-width: 1; stroke-dasharray: none; stroke-linecap: butt; stroke-dashoffset: 0; stroke-linejoin: miter; stroke-miterlimit: 4; fill: rgb(108,99,255); fill-rule: nonzero; opacity: 1;" vector-effect="non-scaling-stroke"  transform=" translate(-679.38, -412.96)" d="M 628.10691 454.70338 C 627.3791827919662 454.70266015625054 626.6559757843092 454.5890008106867 625.9631099999999 454.36645999999996 C 624.1922208881613 453.8069564398005 622.7188531644191 452.56209025926336 621.8715599999999 450.90945999999997 L 615.10813 437.7913 C 613.3408100998 434.3548766846186 614.6892040398233 430.13635856228393 618.12205 428.3621 L 727.45921 371.99052 C 730.8957902571334 370.22349488094255 735.1142004807414 371.57192738166265 736.88865 375.00468 L 743.65208 388.12284 C 745.4193999001999 391.5592633153814 744.0710059601766 395.77778143771604 740.63816 397.55204 L 631.301 453.92359 C 630.313924800092 454.4350552720595 629.2186263853519 454.70245623785263 628.10691 454.70338 Z" stroke-linecap="round" />
</g>
<g transform="matrix(0.88 0 0 0.88 522.45 708.17)"  >
<path style="stroke: none; stroke-width: 1; stroke-dasharray: none; stroke-linecap: butt; stroke-dashoffset: 0; stroke-linejoin: miter; stroke-miterlimit: 4; fill: rgb(47,46,65); fill-rule: nonzero; opacity: 1;" vector-effect="non-scaling-stroke"  transform=" translate(-649.35, -427.91)" d="M 626.13572 457.87672 C 623.4830095466979 457.8763374031427 621.0570359751757 456.380793900179 619.865 454.011 L 613.24366 440.82057000000003 C 612.4954612124467 439.3330987535107 612.3030808787684 437.62732267882984 612.70118 436.01057000000003 C 612.74512 435.83234000000004 612.79591 435.65363 612.85474 435.47639000000004 L 612.85474 435.47639000000004 C 612.98853 435.07355 613.13404 434.44514000000004 613.30225 433.71760000000006 C 613.8388699999999 431.3972800000001 614.5065999999999 428.50960000000003 615.86768 427.82648000000006 L 663.91041 398.70685000000003 C 665.5705376729061 397.8606425224416 667.4996400557955 397.71163276040943 669.2700269014942 398.2928568153153 C 671.0404137471929 398.8740808702212 672.5058060246856 400.1375148360126 673.34132 401.80305000000004 L 685.45997 426.78205 C 687.1861050382386 430.23668490043497 685.7914913465838 434.43667631370874 682.3418 436.17267000000004 L 629.22095 457.14484000000004 C 628.2638567724051 457.6265260645986 627.2071903407508 457.8771890712461 626.13572 457.87672 Z" stroke-linecap="round" />
</g>
<g transform="matrix(0.88 0 0 0.88 482.55 628.4)"  >
<circle style="stroke: none; stroke-width: 1; stroke-dasharray: none; stroke-linecap: butt; stroke-dashoffset: 0; stroke-linejoin: miter; stroke-miterlimit: 4; fill: rgb(108,99,255); fill-rule: nonzero; opacity: 1;" vector-effect="non-scaling-stroke"  cx="0" cy="0" r="53.51916" />
</g>
<g transform="matrix(0.88 0 0 0.88 468.58 868.13)"  >
<path style="stroke: none; stroke-width: 1; stroke-dasharray: none; stroke-linecap: butt; stroke-dashoffset: 0; stroke-linejoin: miter; stroke-miterlimit: 4; fill: rgb(108,99,255); fill-rule: nonzero; opacity: 1;" vector-effect="non-scaling-stroke"  transform=" translate(-588.38, -608.96)" d="M 595.75974 677.46412 L 581.00047 677.46412 C 577.136272401642 677.4597883497743 574.0048016502257 674.3283175983579 574.00047 670.46412 L 574.00047 547.45045 C 574.0047961510189 543.5862501201865 577.1362701201864 540.454776151019 581.00047 540.45045 L 595.75974 540.45045 C 599.6239398798135 540.454776151019 602.755413848981 543.5862501201865 602.75974 547.45045 L 602.75974 670.46412 C 602.7554083497743 674.3283175983579 599.6239375983579 677.4597883497743 595.75974 677.46412 Z" stroke-linecap="round" />
</g>
<g transform="matrix(0.88 0 0 0.88 504.98 824.83)"  >
<path style="stroke: none; stroke-width: 1; stroke-dasharray: none; stroke-linecap: butt; stroke-dashoffset: 0; stroke-linejoin: miter; stroke-miterlimit: 4; fill: rgb(108,99,255); fill-rule: nonzero; opacity: 1;" vector-effect="non-scaling-stroke"  transform=" translate(-629.57, -559.96)" d="M 659.35276 621.28 C 657.0903152626043 621.2843535360985 654.9654296360532 620.1943512623716 653.64915 618.3542199999999 L 582.10081 518.28785 C 579.8563589792913 515.1420647058076 580.5823797853692 510.77304168112215 583.72361 508.52222000000006 L 595.73 499.93775 C 598.8756766878533 497.69306413831964 603.244827824699 498.41899960054326 605.49562 501.56031 L 677.04396 601.6262300000001 C 679.2879157050927 604.7721689069012 678.5618616715462 609.1408489999892 675.4209599999999 611.3918500000001 L 663.4146099999999 619.9768500000001 C 662.2303359495774 620.8254798248386 660.8097006386615 621.2812575875378 659.35276 621.28 Z" stroke-linecap="round" />
</g>
<g transform="matrix(0.88 0 0 0.88 521.78 891.13)"  >
<path style="stroke: none; stroke-width: 1; stroke-dasharray: none; stroke-linecap: butt; stroke-dashoffset: 0; stroke-linejoin: miter; stroke-miterlimit: 4; fill: rgb(108,99,255); fill-rule: nonzero; opacity: 1;" vector-effect="non-scaling-stroke"  transform=" translate(-648.58, -635)" d="M 640.37131 677.60621 C 638.8998609091828 677.5811102914931 637.4537088861159 677.2193200019775 636.14378 676.54859 L 622.93089 669.97047 C 619.47581 668.2497599999999 617.572 665.0280799999999 618.6869899999999 662.78883 L 652.7399899999999 594.38941 C 653.8549899999999 592.15015 657.57251 591.7273 661.02856 593.44703 L 674.24121 600.02515 C 675.7810776615474 600.7556248263023 677.091122913535 601.8944192584661 678.02881 603.31763 C 678.8569034946125 604.4425137164643 679.0304260697632 605.9207129068374 678.48535 607.20679 L 644.43235 675.6062099999999 C 643.77952 676.91773 642.23386 677.60621 640.37131 677.60621 Z" stroke-linecap="round" />
</g>
<g transform="matrix(0.88 0 0 0.88 454.97 734.38)"  >
<path style="stroke: none; stroke-width: 1; stroke-dasharray: none; stroke-linecap: butt; stroke-dashoffset: 0; stroke-linejoin: miter; stroke-miterlimit: 4; fill: rgb(47,46,65); fill-rule: nonzero; opacity: 1;" vector-effect="non-scaling-stroke"  transform=" translate(-572.97, -457.57)" d="M 554.41819 486.71705 C 551.7086324445972 486.7111794496566 549.244298160852 485.14664631310325 548.08619 482.69705 L 535.92945 457.75124999999997 C 535.1366316759085 456.071238774655 535.0442060997574 454.14496411246387 535.6725336583514 452.39676415496143 C 536.3008612169455 450.648564197459 537.5983943167479 449.2218601579878 539.2792999999999 448.43093999999996 L 591.92554 428.59794 C 593.26636 427.96317 595.9499599999999 429.22294 598.1062099999999 430.23319 C 598.7827199999999 430.55057 599.36695 430.8245 599.7668499999999 430.96806 C 599.9421499999999 431.03105999999997 600.1140199999999 431.10136 600.2814999999998 431.17706 L 600.2814999999998 431.17706 C 601.7990911041115 431.86247716471235 603.0220258791995 433.0673152187507 603.7299899999998 434.57452 L 610.0148999999998 447.92804 C 611.6563178412857 451.4263683661376 610.1565202915158 455.5932162321632 606.6621199999997 457.24298 L 557.4394599999997 486.02959999999996 C 556.4957188163365 486.47969972322517 555.4637667377483 486.71450676014194 554.41819 486.71705 Z" stroke-linecap="round" />
</g>
<g transform="matrix(0.88 0 0 0.88 482.33 630.88)"  >
<path style="stroke: none; stroke-width: 1; stroke-dasharray: none; stroke-linecap: butt; stroke-dashoffset: 0; stroke-linejoin: miter; stroke-miterlimit: 4; fill: rgb(47,46,65); fill-rule: nonzero; opacity: 1;" vector-effect="non-scaling-stroke"  transform=" translate(-603.94, -340.43)" d="M 597.06811 357.45429 L 597.0124400000001 355.45429 C 600.7331500000001 355.35078 604.0134400000001 355.11738 606.4782600000001 353.3166 C 607.8922429044825 352.22482242423354 608.7614239106732 350.57200795598925 608.8596100000001 348.78828 C 608.9473917785988 347.69650581087774 608.5211224751814 346.6262272036064 607.7067800000001 345.89375 C 606.0705500000001 344.51191 603.4377800000001 344.95918 601.5187800000001 345.83906 L 599.8640000000001 346.59785 L 603.0373400000002 323.40742 L 605.0187800000002 323.6789 L 602.3195600000003 343.40546 C 604.9269800000003 342.63886 607.3430000000003 342.96894000000003 608.9977800000003 344.3664 C 610.2857675003772 345.4908415532919 610.9740217279675 347.152761159518 610.8581400000003 348.85859 C 610.739954116523 351.25607868627924 609.568674329684 353.4788970265774 607.6579400000003 354.93183 C 604.491 357.24628 600.37524 357.36152 597.06811 357.45429 Z" stroke-linecap="round" />
</g>
<g transform="matrix(0.88 0 0 0.88 496.7 618.47)"  >
<rect style="stroke: none; stroke-width: 1; stroke-dasharray: none; stroke-linecap: butt; stroke-dashoffset: 0; stroke-linejoin: miter; stroke-miterlimit: 4; fill: rgb(47,46,65); fill-rule: nonzero; opacity: 1;" vector-effect="non-scaling-stroke"  x="-5.385" y="-1" rx="0" ry="0" width="10.77" height="2" />
</g>
<g transform="matrix(0.88 0 0 0.88 466.66 618.47)"  >
<rect style="stroke: none; stroke-width: 1; stroke-dasharray: none; stroke-linecap: butt; stroke-dashoffset: 0; stroke-linejoin: miter; stroke-miterlimit: 4; fill: rgb(47,46,65); fill-rule: nonzero; opacity: 1;" vector-effect="non-scaling-stroke"  x="-5.385" y="-1" rx="0" ry="0" width="10.77" height="2" />
</g>
<g transform="matrix(0.88 0 0 0.88 484.79 757.64)"  >
<path style="stroke: none; stroke-width: 1; stroke-dasharray: none; stroke-linecap: butt; stroke-dashoffset: 0; stroke-linejoin: miter; stroke-miterlimit: 4; fill: rgb(47,46,65); fill-rule: nonzero; opacity: 1;" vector-effect="non-scaling-stroke"  transform=" translate(-606.72, -483.89)" d="M 689.969 562.48316 L 523.48777 562.48316 C 521.1618865884902 562.4918409745073 519.0094129830042 561.2544581441791 517.8464655206897 559.2401686408676 C 516.6835180583752 557.2258791375561 516.6881556729553 554.7430909098499 517.85862 552.73316 L 601.0991 408.5564 C 602.2501634734232 406.53516321568526 604.4025163387129 405.29255134971197 606.72849 405.3064 L 606.72849 405.3064 C 609.0544004431903 405.29255355950505 611.2066808507385 406.53517657088895 612.35764 408.5564 L 695.5983699999999 552.73316 C 696.7593574862375 554.7443215690583 696.7592624801648 557.2220791771917 695.598120767112 559.2331517075263 C 694.4369790540592 561.2442242378607 692.291180756441 562.4831077834889 689.9689699999999 562.48316 Z" stroke-linecap="round" />
</g>
<g transform="matrix(0.88 0 0 0.88 482.19 929.11)"  >
<path style="stroke: none; stroke-width: 1; stroke-dasharray: none; stroke-linecap: butt; stroke-dashoffset: 0; stroke-linejoin: miter; stroke-miterlimit: 4; fill: rgb(63,61,86); fill-rule: nonzero; opacity: 1;" vector-effect="non-scaling-stroke"  transform=" translate(-603.78, -677.98)" d="M 794.2757 678.98316 L 413.27570000000003 678.98316 C 412.72341525016924 678.98316 412.27570000000003 678.5354447498308 412.27570000000003 677.98316 C 412.27570000000003 677.4308752501692 412.72341525016924 676.98316 413.27570000000003 676.98316 L 794.2757 676.98316 C 794.8279847498309 676.98316 795.2757 677.4308752501692 795.2757 677.98316 C 795.2757 678.5354447498308 794.8279847498309 678.98316 794.2757 678.98316 Z" stroke-linecap="round" />
</g>
<g transform="matrix(0.88 0 0 0.88 400.2 588.33)"  >
<path style="stroke: none; stroke-width: 1; stroke-dasharray: none; stroke-linecap: butt; stroke-dashoffset: 0; stroke-linejoin: miter; stroke-miterlimit: 4; fill: rgb(47,46,65); fill-rule: nonzero; opacity: 1;" vector-effect="non-scaling-stroke"  transform=" translate(-510.99, -292.27)" d="M 608.23681 283.44048 C 602.30211 259.65126999999995 579.29751 241.38541999999998 554.6478999999999 241.83986999999996 C 542.4445548054927 242.18227370412006 530.6766412009131 246.44930486964688 521.0899 254.00796 C 516.2571689906857 257.7693040132894 512.096254150369 262.3218414484699 508.78360999999995 267.47251 C 505.06855999999993 273.27050999999994 502.73590999999993 279.81550999999996 500.91465999999997 286.42150999999996 C 497.23472999999996 299.76926 495.50034999999997 314.87332999999995 486.16188 325.77369999999996 C 478.3270841125069 334.70159159420365 467.0065855929834 339.7944229958225 455.12855 339.73488 C 443.1386536891935 339.54809111781026 431.92759689870354 333.75911323757094 424.83325 324.0915 C 417.80391000000003 314.71983 414.34325 301.75867 418.40425000000005 290.44817 C 420.39705000000004 284.89789 424.68210000000005 279.65502 430.81065000000007 278.7297 C 436.5227365504471 277.9565305491472 442.1485111763451 280.64934074483733 445.12889000000007 285.58321 C 447.88500000000005 290.41921 447.0035700000001 296.87206000000003 443.5506500000001 301.13769 C 439.91377000000006 305.63056 433.8360800000001 306.87459 428.4756500000001 305.0695 C 425.9561214144877 304.21305218519916 423.74061664253463 302.64125235534783 422.09985000000006 300.54616 C 420.90114000000005 299.03242 418.77655000000004 301.15468 419.9629300000001 302.65285 C 423.82928069887276 307.2896235865139 429.82888521879516 309.58183524490244 435.8020200000001 308.70434 C 441.776969588273 307.8004259226562 446.75111506860554 303.64400518482364 448.7023500000001 297.92476 C 450.84049269726967 292.25688932549787 449.68809861385563 285.87239554771566 445.70335000000006 281.3097 C 441.5595042360704 276.80360802558255 435.3708664628605 274.77612481938644 429.36399000000006 275.9567 C 423.03589000000005 277.29649 418.44028000000003 282.50109000000003 416.05527000000006 288.26825 C 413.7051916112413 294.25974512764907 413.0851771753043 300.7908507473888 414.2658600000001 307.11753000000004 C 416.46941636406916 319.46466288007156 423.8190138887187 330.2924681515821 434.4804200000001 336.89866000000006 C 445.1489900000001 343.44939000000005 458.46521000000007 344.35066000000006 470.1691400000001 340.14281000000005 C 476.01709645900803 338.0741821060143 481.35815024202975 334.7853043673211 485.8377500000001 330.4945000000001 C 490.6515561008442 325.6109484656531 494.33576734211607 319.7310900096845 496.6307500000001 313.26929000000007 C 501.90755000000007 299.45301000000006 502.6806800000001 283.9927400000001 510.1469500000001 271.0057100000001 C 516.6594063464561 259.97845487107037 526.9319784476769 251.67123729938356 539.07771 247.61 C 551.1524274609959 243.43822439659903 564.3694183999718 244.07268189933015 575.98902 249.38186000000002 C 587.5428156593595 254.73280585454393 596.8492625988224 263.9730933863542 602.2825 275.48842 C 603.5764380916954 278.2942638836537 604.599931665728 281.2170765619025 605.33909 284.21719 C 605.8072800000001 286.09392 608.7045 285.31525 608.2368100000001 283.44049 Z" stroke-linecap="round" />
</g>
<g transform="matrix(0.88 0 0 0.88 707.58 685.26)"  >
<path style="stroke: none; stroke-width: 1; stroke-dasharray: none; stroke-linecap: butt; stroke-dashoffset: 0; stroke-linejoin: miter; stroke-miterlimit: 4; fill: rgb(63,61,86); fill-rule: nonzero; opacity: 1;" vector-effect="non-scaling-stroke"  transform=" translate(-858.89, -401.98)" d="M 976.38987 471.98316 L 741.38987 471.98316 C 732.0054064142748 471.97260099839673 724.4004290016032 464.36762358572514 724.38987 454.98316 L 724.38987 348.98316 C 724.4004345007007 339.59869869570184 732.0054086957018 331.9937245007007 741.38987 331.98316 L 976.38987 331.98316 C 985.7743313042981 331.9937245007007 993.3793054992992 339.59869869570184 993.38987 348.98316 L 993.38987 454.98316 C 993.3793109983967 464.36762358572514 985.7743335857251 471.97260099839673 976.38987 471.98316 Z M 741.38987 333.98316 C 733.1094824258788 333.99252852176994 726.3992385217699 340.7027724258789 726.38987 348.98316 L 726.38987 454.98316 C 726.3992385217699 463.2635475741211 733.1094824258788 469.97379147823005 741.38987 469.98316 L 976.38987 469.98316 C 984.6702575741211 469.97379147823005 991.38050147823 463.26354757412116 991.38987 454.98316 L 991.38987 348.98316 C 991.38050147823 340.7027724258789 984.6702575741211 333.99252852176994 976.38987 333.98316 Z" stroke-linecap="round" />
</g>
<g transform="matrix(0.88 0 0 0.88 645.63 667.7)" id="bbcca127-9e59-4001-a5e0-206590d8bff8"  >
<circle style="stroke: none; stroke-width: 1; stroke-dasharray: none; stroke-linecap: butt; stroke-dashoffset: 0; stroke-linejoin: miter; stroke-miterlimit: 4; fill: rgb(204,204,204); fill-rule: nonzero; opacity: 1;" vector-effect="non-scaling-stroke"  cx="0" cy="0" r="21.74799" />
</g>
<g transform="matrix(0.88 0 0 0.88 736.38 658.1)"  >
<path style="stroke: none; stroke-width: 1; stroke-dasharray: none; stroke-linecap: butt; stroke-dashoffset: 0; stroke-linejoin: miter; stroke-miterlimit: 4; fill: rgb(204,204,204); fill-rule: nonzero; opacity: 1;" vector-effect="non-scaling-stroke"  transform=" translate(-891.49, -371.23)" d="M 835.99918 367.60915 C 834.0208933959293 367.64201095157074 832.4343858967205 369.2550904911694 832.4343858967205 371.23365 C 832.4343858967205 373.2122095088306 834.0208933959293 374.8252890484293 835.99918 374.85815 L 946.8771800000001 374.85815 C 948.8754308387032 374.88588500273363 950.519198363425 373.29117339145535 950.5520005038344 371.2929993088642 C 950.5848026442438 369.294825226273 948.9942644773201 367.6470190671528 946.9961800000001 367.60915 Q 946.9367700000001 367.60815 946.8771800000001 367.60915 Z" stroke-linecap="round" />
</g>
<g transform="matrix(0.88 0 0 0.88 736.38 677.31)"  >
<path style="stroke: none; stroke-width: 1; stroke-dasharray: none; stroke-linecap: butt; stroke-dashoffset: 0; stroke-linejoin: miter; stroke-miterlimit: 4; fill: rgb(204,204,204); fill-rule: nonzero; opacity: 1;" vector-effect="non-scaling-stroke"  transform=" translate(-891.49, -392.98)" d="M 835.99918 389.35714 C 834.0208933959293 389.39000095157076 832.4343858967205 391.00308049116944 832.4343858967205 392.98164 C 832.4343858967205 394.9601995088306 834.0208933959293 396.5732790484293 835.99918 396.60614000000004 L 946.8771800000001 396.60614000000004 C 948.8754308387032 396.63387500273365 950.519198363425 395.03916339145536 950.5520005038344 393.0409893088642 C 950.5848026442438 391.04281522627304 948.9942644773201 389.39500906715284 946.9961800000001 389.35714 Q 946.9367700000001 389.35622 946.8771800000001 389.35714 Z" stroke-linecap="round" />
</g>
<g transform="matrix(0.88 0 0 0.88 707.59 699.62)"  >
<path style="stroke: none; stroke-width: 1; stroke-dasharray: none; stroke-linecap: butt; stroke-dashoffset: 0; stroke-linejoin: miter; stroke-miterlimit: 4; fill: rgb(204,204,204); fill-rule: nonzero; opacity: 1;" vector-effect="non-scaling-stroke"  transform=" translate(-858.89, -418.23)" d="M 770.39137 414.60915 C 768.4130833959293 414.64201095157074 766.8265758967206 416.2550904911694 766.8265758967206 418.23365 C 766.8265758967206 420.2122095088306 768.4130833959293 421.8252890484293 770.39137 421.85815 L 947.26937 421.85815 C 948.5664144987853 421.88273247675824 949.7777215310904 421.21232584522005 950.4456536959314 420.1002128324539 C 951.1135858607723 418.9880998196877 951.1363100569766 417.60383344755087 950.5052409780833 416.47039595582146 C 949.8741718991901 415.33695846409205 948.6855224912748 414.62715400990436 947.38837 414.60915 Q 947.32895 414.60815 947.26937 414.60915 Z" stroke-linecap="round" />
</g>
<g transform="matrix(0.88 0 0 0.88 707.59 718.84)"  >
<path style="stroke: none; stroke-width: 1; stroke-dasharray: none; stroke-linecap: butt; stroke-dashoffset: 0; stroke-linejoin: miter; stroke-miterlimit: 4; fill: rgb(204,204,204); fill-rule: nonzero; opacity: 1;" vector-effect="non-scaling-stroke"  transform=" translate(-858.89, -439.98)" d="M 770.39137 436.35714 C 768.4130833959293 436.39000095157076 766.8265758967206 438.00308049116944 766.8265758967206 439.98164 C 766.8265758967206 441.9601995088306 768.4130833959293 443.5732790484293 770.39137 443.60614000000004 L 947.26937 443.60614000000004 C 948.5664144987853 443.63072247675825 949.7777215310904 442.96031584522007 950.4456536959314 441.8482028324539 C 951.1135858607723 440.7360898196877 951.1363100569766 439.3518234475509 950.5052409780833 438.2183859558215 C 949.8741718991901 437.08494846409207 948.6855224912748 436.3751440099044 947.38837 436.35714 Q 947.32895 436.35622 947.26937 436.35714 Z" stroke-linecap="round" />
</g>
<g transform="matrix(0.88 0 0 0.88 820.32 741.48)"  >
<path style="stroke: none; stroke-width: 1; stroke-dasharray: none; stroke-linecap: butt; stroke-dashoffset: 0; stroke-linejoin: miter; stroke-miterlimit: 4; fill: rgb(108,99,255); fill-rule: nonzero; opacity: 1;" vector-effect="non-scaling-stroke"  transform=" translate(-986.5, -465.61)" d="M 986.50011 445.60522 C 1012.7901099999999 446.05422 1012.7859699999999 485.16006 986.4992599999999 485.60522 C 960.21012 485.15625 960.21424 446.05039 986.50011 445.60522 Z" stroke-linecap="round" />
</g>
</svg>