<?xml version="1.0" encoding="UTF-8" standalone="no" ?>
<!DOCTYPE svg PUBLIC "-//W3C//DTD SVG 1.1//EN" "http://www.w3.org/Graphics/SVG/1.1/DTD/svg11.dtd">
<svg xmlns="http://www.w3.org/2000/svg" xmlns:xlink="http://www.w3.org/1999/xlink" version="1.1" width="1080" height="1080" viewBox="0 0 1080 1080" xml:space="preserve">
<desc>Created with Fabric.js 5.2.4</desc>
<defs>
</defs>
<rect x="0" y="0" width="100%" height="100%" fill="transparent"></rect>
<g transform="matrix(1 0 0 1 540 540)" id="20df7a2a-159f-4136-9357-944dee393882"  >
<rect style="stroke: none; stroke-width: 1; stroke-dasharray: none; stroke-linecap: butt; stroke-dashoffset: 0; stroke-linejoin: miter; stroke-miterlimit: 4; fill: rgb(255,255,255); fill-rule: nonzero; opacity: 1; visibility: hidden;" vector-effect="non-scaling-stroke"  x="-540" y="-540" rx="0" ry="0" width="1080" height="1080" />
</g>
<g transform="matrix(0 0 0 0 0 0)" id="713df3b9-9fb6-4f43-89e9-d57da959de97"  >
</g>
<g transform="matrix(0.74 0 0 0.74 566.72 792.06)"  >
<path style="stroke: none; stroke-width: 1; stroke-dasharray: none; stroke-linecap: butt; stroke-dashoffset: 0; stroke-linejoin: miter; stroke-miterlimit: 4; fill: rgb(108,99,255); fill-rule: nonzero; opacity: 1;" vector-effect="non-scaling-stroke"  transform=" translate(-614.22, -524.62)" d="M 682.61225 523.03207 L 681.36111 537.73871 C 681.052820598834 541.3135786077748 677.9090816141944 543.9643559147017 674.33351 543.66433 L 551.76259 533.2368299999999 C 548.1877256315834 532.9285405016757 545.5369499119726 529.7848078729584 545.8369700000001 526.2092399999999 L 547.0881200000001 511.5025999999999 C 547.3963989277041 507.9277301532983 550.5401385131124 505.27694856784905 554.1157100000001 505.57697999999993 L 676.6866300000002 516.00448 C 680.2614943684168 516.3127694983243 682.9122700880275 519.4565021270416 682.61225 523.03207 Z" stroke-linecap="round" />
</g>
<g transform="matrix(0.74 0 0 0.74 617.9 817.35)"  >
<path style="stroke: none; stroke-width: 1; stroke-dasharray: none; stroke-linecap: butt; stroke-dashoffset: 0; stroke-linejoin: miter; stroke-miterlimit: 4; fill: rgb(108,99,255); fill-rule: nonzero; opacity: 1;" vector-effect="non-scaling-stroke"  transform=" translate(-683.68, -558.81)" d="M 707.04188 594.76651 L 693.46608 600.55861 C 690.1695900000001 601.96505 686.7767200000001 601.44344 685.90314 599.39589 L 655.91904 529.11769 C 655.04545 527.07014 657.01679 524.2599 660.31328 522.8534500000001 L 673.8890799999999 517.0613500000001 C 677.1855699999999 515.6549100000001 680.5784399999999 516.1765200000001 681.4520799999999 518.2240700000001 L 711.4361799999999 588.5022700000001 C 712.30971 590.54982 710.33837 593.36006 707.04188 594.76651 Z" stroke-linecap="round" />
</g>
<g transform="matrix(0.74 0 0 0.74 432.96 839.26)"  >
<path style="stroke: none; stroke-width: 1; stroke-dasharray: none; stroke-linecap: butt; stroke-dashoffset: 0; stroke-linejoin: miter; stroke-miterlimit: 4; fill: rgb(230,230,230); fill-rule: nonzero; opacity: 1;" vector-effect="non-scaling-stroke"  transform=" translate(-429.67, -605.99)" d="M 635.17273 571.99786 L 405.28351 571.99786 C 410.7053320891103 532.7558916124955 391.2077850139604 494.26873201137937 356.36078212983847 475.4269001554833 C 321.5137792457165 456.5850682995872 278.63293085167703 461.34412672714177 248.76529492637383 487.3682033087498 C 218.8976590010706 513.3922798903578 208.31350176252369 555.218006562577 222.20780837072465 592.3162070791676 C 236.1021149789256 629.4144075957582 271.55798228271453 653.9968661759244 311.17273 653.99786 C 322.79481113504175 654.0096550243125 334.31992005494055 651.8834554744386 345.17273 647.7253999999999 L 345.17273 739.99786 C 345.17273 744.4161379986463 348.7544520013536 747.99786 353.17273 747.99786 L 635.17273 747.99786 C 639.5910079986463 747.99786 643.17273 744.4161379986463 643.17273 739.99786 L 643.17273 579.99786 C 643.17273 575.5795820013536 639.5910079986463 571.99786 635.17273 571.99786 Z" stroke-linecap="round" />
</g>
<g transform="matrix(0.74 0 0 0.74 477.17 876.65)"  >
<path style="stroke: none; stroke-width: 9; stroke-dasharray: none; stroke-linecap: butt; stroke-dashoffset: 0; stroke-linejoin: miter; stroke-miterlimit: 4; fill: rgb(63,61,86); fill-rule: nonzero; opacity: 1;" vector-effect="non-scaling-stroke"  transform=" translate(-511.17, -638)" d="M 652.17271 726.9979 L 370.17271000000005 726.9979 C 365.20446832990206 726.9923008830121 361.17830911698786 722.966141670098 361.17271000000005 717.9979 L 361.17271000000005 557.9979 C 361.17830911698786 553.029658329902 365.20446832990206 549.0034991169878 370.17271000000005 548.9979 L 652.17271 548.9979 C 657.140951670098 549.0034991169878 661.1671108830122 553.029658329902 661.17271 557.9979 L 661.17271 717.9979 C 661.1671108830122 722.966141670098 657.140951670098 726.9923008830121 652.17271 726.9979 Z M 370.17271000000005 550.9979 C 366.30858540407655 551.0024076090112 363.17721760901134 554.1337754040765 363.17271000000005 557.9979 L 363.17271000000005 717.9979 C 363.17721760901134 721.8620245959235 366.30858540407655 724.9933923909887 370.17271000000005 724.9979 L 652.17271 724.9979 C 656.0368345959236 724.9933923909887 659.1682023909888 721.8620245959235 659.17271 717.9979 L 659.17271 557.9979 C 659.1682023909888 554.1337754040765 656.0368345959236 551.0024076090112 652.17271 550.9979 Z" stroke-linecap="round" />
</g>
<g transform="matrix(0.74 0 0 0.74 544.58 800.18)"  >
<path style="stroke: none; stroke-width: 1; stroke-dasharray: none; stroke-linecap: butt; stroke-dashoffset: 0; stroke-linejoin: miter; stroke-miterlimit: 4; fill: rgb(108,99,255); fill-rule: nonzero; opacity: 1;" vector-effect="non-scaling-stroke"  transform=" translate(-584.22, -535.62)" d="M 652.61225 534.03207 L 651.36111 548.73871 C 651.052820598834 552.3135786077748 647.9090816141944 554.9643559147017 644.33351 554.66433 L 521.76259 544.2368299999999 C 518.1877256315834 543.9285405016757 515.5369499119726 540.7848078729584 515.8369700000001 537.2092399999999 L 517.0881200000001 522.5025999999999 C 517.3963989277041 518.9277301532983 520.5401385131124 516.2769485678491 524.1157100000001 516.5769799999999 L 646.6866300000002 527.00448 C 650.2614943684168 527.3127694983243 652.9122700880275 530.4565021270416 652.61225 534.03207 Z" stroke-linecap="round" />
</g>
<g transform="matrix(0.74 0 0 0.74 595.76 825.47)"  >
<path style="stroke: none; stroke-width: 1; stroke-dasharray: none; stroke-linecap: butt; stroke-dashoffset: 0; stroke-linejoin: miter; stroke-miterlimit: 4; fill: rgb(108,99,255); fill-rule: nonzero; opacity: 1;" vector-effect="non-scaling-stroke"  transform=" translate(-653.68, -569.81)" d="M 677.04188 605.76651 L 663.46608 611.55861 C 660.1695900000001 612.96505 656.7767200000001 612.44344 655.90314 610.39589 L 625.91904 540.11769 C 625.04545 538.07014 627.01679 535.2599 630.31328 533.8534500000001 L 643.8890799999999 528.0613500000001 C 647.1855699999999 526.6549100000001 650.5784399999999 527.1765200000001 651.4520799999999 529.2240700000001 L 681.4361799999999 599.5022700000001 C 682.30971 601.54982 680.33837 604.36006 677.04188 605.76651 Z" stroke-linecap="round" />
</g>
<g transform="matrix(1.67 0 0 1.67 648.59 653)"  >
<circle style="stroke: none; stroke-width: 1; stroke-dasharray: none; stroke-linecap: butt; stroke-dashoffset: 0; stroke-linejoin: miter; stroke-miterlimit: 4; fill: rgb(255,101,132); fill-rule: nonzero; opacity: 1;" vector-effect="non-scaling-stroke"  cx="0" cy="0" r="22" />
</g>
<g transform="matrix(1.67 0 0 1.67 654.47 659.53)"  >
<path style="stroke: none; stroke-width: 1; stroke-dasharray: none; stroke-linecap: butt; stroke-dashoffset: 0; stroke-linejoin: miter; stroke-miterlimit: 4; fill: rgb(63,61,86); fill-rule: nonzero; opacity: 1;" vector-effect="non-scaling-stroke"  transform=" translate(-769.33, -333.82)" d="M 751.06926 347.81191 C 745.4137740926826 340.4258120972792 744.7644420256274 330.36021436080114 749.4240463486549 322.30868962139516 C 754.0836506716823 314.2571648819892 763.1345620022772 309.80532323929697 772.3563542288761 311.02905164294015 C 781.5781464554749 312.2527800465833 789.1547453108365 318.91108611575993 791.5531943358778 327.8992119132062 C 793.9516433609194 336.8873377106525 790.6996090386153 346.4352255761679 783.31351 352.09071 C 773.223971427453 359.79823598427964 758.7994361336484 357.8841055078341 751.06926 347.81191 Z M 786.0043499999999 321.06234 C 778.9534191497561 311.8537848367232 765.772501732888 310.10468407099705 756.5639458227855 317.1556139458823 C 747.355389912683 324.2065438207676 745.6062877508507 337.38746105237294 752.6572166503772 346.59601770930107 C 759.7081455499037 355.8045743662292 772.8890625962463 357.5536779241677 782.0976199999999 350.50275 C 791.2938378726269 343.44468187094003 793.0415061646517 330.2745700226158 786.00435 321.06234 Z" stroke-linecap="round" />
</g>
<g transform="matrix(2.21 -1.69 1.69 2.21 770.47 660.03)"  >
<rect style="stroke: none; stroke-width: 1; stroke-dasharray: none; stroke-linecap: butt; stroke-dashoffset: 0; stroke-linejoin: miter; stroke-miterlimit: 4; fill: rgb(108,99,255); fill-rule: nonzero; opacity: 1;" vector-effect="non-scaling-stroke"  x="-16" y="-16" rx="0" ry="0" width="32" height="32" />
</g>
<g transform="matrix(2.69 0 0 2.69 783.81 658.89)"  >
<path style="stroke: none; stroke-width: 1; stroke-dasharray: none; stroke-linecap: butt; stroke-dashoffset: 0; stroke-linejoin: miter; stroke-miterlimit: 4; fill: rgb(63,61,86); fill-rule: nonzero; opacity: 1;" vector-effect="non-scaling-stroke"  transform=" translate(-959.99, -354.3)" d="M 956.832 378.13032 L 936.16187 351.135 L 963.1571700000001 330.46488 L 983.8272900000001 357.46018 Z M 938.96573 351.50709 L 957.20407 375.32647000000003 L 981.02345 357.08813000000004 L 962.7851 333.26875 Z" stroke-linecap="round" />
</g>
<g transform="matrix(0.74 0 0 0.74 504.4 940.67)"  >
<rect style="stroke: none; stroke-width: 1; stroke-dasharray: none; stroke-linecap: butt; stroke-dashoffset: 0; stroke-linejoin: miter; stroke-miterlimit: 4; fill: rgb(63,61,86); fill-rule: nonzero; opacity: 1;" vector-effect="non-scaling-stroke"  x="-312" y="-1" rx="0" ry="0" width="624" height="2" />
</g>
<g transform="matrix(0.74 0 0 0.74 346.13 753.66)"  >
<path style="stroke: none; stroke-width: 1; stroke-dasharray: none; stroke-linecap: butt; stroke-dashoffset: 0; stroke-linejoin: miter; stroke-miterlimit: 4; fill: rgb(63,61,86); fill-rule: nonzero; opacity: 1;" vector-effect="non-scaling-stroke"  transform=" translate(-324.17, -533)" d="M 324.17271 628.9979 C 271.15337401624384 628.9979 228.17271 586.0172359837561 228.17271 532.9979 C 228.17271 479.9785640162438 271.15337401624384 436.99789999999996 324.17271 436.99789999999996 C 377.19204598375615 436.99789999999996 420.17271 479.97856401624375 420.17271 532.9979 C 420.112784454543 585.9923941627502 377.1672041627503 628.9379744545429 324.17271 628.9979 Z M 324.17271 438.99789999999996 C 272.2579435159054 438.99789999999996 230.17271 481.0831335159054 230.17271 532.9979 C 230.17271 584.9126664840945 272.2579435159054 626.9979 324.17271 626.9979 C 376.08747648409457 626.9979 418.17271 584.9126664840945 418.17271 532.9979 C 418.11404642175154 481.1074521905362 376.06315780946375 439.0565635782484 324.17271 438.9979 Z" stroke-linecap="round" />
</g>
<g transform="matrix(0.74 0 0 0.74 506.44 653.65)"  >
<circle style="stroke: none; stroke-width: 1; stroke-dasharray: none; stroke-linecap: butt; stroke-dashoffset: 0; stroke-linejoin: miter; stroke-miterlimit: 4; fill: rgb(108,99,255); fill-rule: nonzero; opacity: 1;" vector-effect="non-scaling-stroke"  cx="0" cy="0" r="53.51916" />
</g>
<g transform="matrix(0.74 0 0 0.74 517.25 655.66)"  >
<path style="stroke: none; stroke-width: 1; stroke-dasharray: none; stroke-linecap: butt; stroke-dashoffset: 0; stroke-linejoin: miter; stroke-miterlimit: 4; fill: rgb(47,46,65); fill-rule: nonzero; opacity: 1;" vector-effect="non-scaling-stroke"  transform=" translate(-547.34, -339.82)" d="M 540.46971 356.84454 L 540.41405 354.84454 C 544.1347499999999 354.74102999999997 547.41505 354.50763 549.87987 352.70685 C 551.2938491466973 351.6150704818143 552.1630263520756 349.9622563004465 552.26121 348.17852999999997 C 552.3489964741105 347.0867551041275 551.9227263708722 346.0164744886625 551.10838 345.284 C 549.47215 343.90216 546.83938 344.34943 544.92038 345.22931 L 543.2656000000001 345.9881 L 546.4389400000001 322.79767 L 548.4203800000001 323.06915 L 545.7211700000001 342.79571 C 548.3285900000002 342.02911 550.7446000000001 342.35919 552.3993900000002 343.75665 C 553.6873737934237 344.8810935157269 554.3756242017387 346.54301283291375 554.2597400000002 348.24884 C 554.1415581888624 350.6463298006661 552.9702775512228 352.86914975558716 551.0595400000002 354.32207999999997 C 547.89256 356.63653 543.77684 356.75177 540.46971 356.84454 Z" stroke-linecap="round" />
</g>
<g transform="matrix(0.74 0 0 0.74 529.24 645.26)"  >
<rect style="stroke: none; stroke-width: 1; stroke-dasharray: none; stroke-linecap: butt; stroke-dashoffset: 0; stroke-linejoin: miter; stroke-miterlimit: 4; fill: rgb(47,46,65); fill-rule: nonzero; opacity: 1;" vector-effect="non-scaling-stroke"  x="-5.385" y="-1" rx="0" ry="0" width="10.77" height="2" />
</g>
<g transform="matrix(0.74 0 0 0.74 504.14 645.26)"  >
<rect style="stroke: none; stroke-width: 1; stroke-dasharray: none; stroke-linecap: butt; stroke-dashoffset: 0; stroke-linejoin: miter; stroke-miterlimit: 4; fill: rgb(47,46,65); fill-rule: nonzero; opacity: 1;" vector-effect="non-scaling-stroke"  x="-5.385" y="-1" rx="0" ry="0" width="10.77" height="2" />
</g>
<g transform="matrix(0.74 0 0 0.74 516.49 755.92)"  >
<path style="stroke: none; stroke-width: 1; stroke-dasharray: none; stroke-linecap: butt; stroke-dashoffset: 0; stroke-linejoin: miter; stroke-miterlimit: 4; fill: rgb(47,46,65); fill-rule: nonzero; opacity: 1;" vector-effect="non-scaling-stroke"  transform=" translate(-546.17, -475.5)" d="M 609.17271 551.4979 L 483.17271000000005 551.4979 C 480.68855266069073 551.4951884325202 478.6754215674799 549.4820573393092 478.67271000000005 546.9979 L 478.67271000000005 445.77719 C 478.70155415597884 420.22980107906636 499.40461107906634 399.5267441559788 524.952 399.4979 L 566.1727 399.4979 C 568.627556428853 399.500657649571 570.6283538796595 401.46823379904697 570.67221 403.9227 L 613.6727 546.9247 L 613.6727 546.9979500000001 C 613.669955393051 549.4820816322795 611.656841656578 551.4951774743685 609.17271 551.4979 Z" stroke-linecap="round" />
</g>
<g transform="matrix(0.74 0 0 0.74 506.17 780.27)"  >
<path style="stroke: none; stroke-width: 1; stroke-dasharray: none; stroke-linecap: butt; stroke-dashoffset: 0; stroke-linejoin: miter; stroke-miterlimit: 4; fill: rgb(108,99,255); fill-rule: nonzero; opacity: 1;" vector-effect="non-scaling-stroke"  transform=" translate(-532.32, -508.52)" d="M 525.47529 440.45264 L 540.23411 440.56863999999996 C 543.8220978391972 440.60098617576415 546.7068782007776 443.5314669494789 546.68283 447.11951999999997 L 545.71625 570.12939 C 545.6839093013242 573.717377827295 542.753433026532 576.6021626371814 539.1653799999999 576.5781199999999 L 524.4065499999999 576.4621199999999 C 520.8185621608027 576.4297738242357 517.9337817992223 573.4992930505209 517.95783 569.9112399999999 L 518.92441 446.90136999999993 C 518.9567506971434 443.3133782431466 521.88723308112 440.4285918229982 525.47529 440.45264 Z" stroke-linecap="round" />
</g>
<g transform="matrix(0.74 0 0 0.74 506.44 736.28)"  >
<path style="stroke: none; stroke-width: 1; stroke-dasharray: none; stroke-linecap: butt; stroke-dashoffset: 0; stroke-linejoin: miter; stroke-miterlimit: 4; fill: rgb(47,46,65); fill-rule: nonzero; opacity: 1;" vector-effect="non-scaling-stroke"  transform=" translate(-532.67, -449)" d="M 510.67271 435.4979 C 510.67271 423.34763550372253 520.5224455037226 413.49789999999996 532.67271 413.49789999999996 C 544.8229744962775 413.49789999999996 554.67271 423.34763550372253 554.67271 435.4979 L 554.67271 484.4979 L 510.67271000000005 484.4979 Z" stroke-linecap="round" />
</g>
<g transform="matrix(0.74 0 0 0.74 469.32 643.1)"  >
<path style="stroke: none; stroke-width: 1; stroke-dasharray: none; stroke-linecap: butt; stroke-dashoffset: 0; stroke-linejoin: miter; stroke-miterlimit: 4; fill: rgb(47,46,65); fill-rule: nonzero; opacity: 1;" vector-effect="non-scaling-stroke"  transform=" translate(-482.16, -322.64)" d="M 516.78472 311.80158 C 521.8536 306.58607 529.21746 305.68923 536.14696 306.25678 C 543.56767 306.86456 550.59896 309.32959999999997 557.87802 310.70072 C 565.05786 312.05315 572.84193 312.65895 579.70448 309.66335 C 586.1500755685903 306.7689343770898 590.6015198520323 300.7015256334995 591.4277099999999 293.68435 C 592.3111995620617 286.44008723094856 590.4343292333413 279.1287793875376 586.17071 273.20582 C 581.4707099999999 266.56461 574.79337 261.70007000000004 567.85257 257.61682 C 552.89082 248.81482000000003 536.2081900000001 241.11293 518.7024200000001 239.68911000000003 C 502.8980700000001 238.40367000000003 486.1394200000001 242.77140000000003 475.0218100000001 254.57462000000004 C 464.60012000000006 265.63903000000005 460.16370000000006 281.08062000000007 459.2411800000001 295.95091 C 458.0637500000001 314.93002 462.4930800000001 333.67291 464.0959100000001 352.49170000000004 C 465.34309000000013 367.13489000000004 464.8760300000001 384.71435 452.9837300000001 395.23032 C 442.4647300000001 404.53191 426.44747000000007 404.42095 414.0456400000001 399.33977 C 399.3046400000001 393.30021 388.9612000000001 379.74225 381.1378800000001 366.41687 C 379.1462600000001 363.02456 377.2741900000001 359.5641 375.4585700000001 356.07487000000003 C 374.5670700000001 354.3616 371.9771900000001 355.87679 372.8681600000001 357.58903000000004 C 380.1896400000001 371.65926 388.7058800000001 385.71326000000005 401.5126000000001 395.46323000000007 C 412.7100500000001 403.98804000000007 427.6509200000001 408.09451000000007 441.49138000000005 404.4915200000001 C 448.20183466048934 402.8165453151831 454.196056656404 399.0286548716389 458.58938000000006 393.6868900000001 C 463.3328900000001 387.7767300000001 465.82238000000007 380.5044600000001 466.8608300000001 373.0646200000001 C 467.9723600000001 365.1014700000001 467.58483000000007 357.0770400000001 466.77967000000007 349.1050800000001 C 465.81030000000004 339.5077600000001 464.2650700000001 329.9805600000001 463.2066700000001 320.3937100000001 C 461.4041800000001 304.0666000000001 461.1558500000001 287.1215100000001 467.6071700000001 271.6952500000001 C 470.3882704177471 264.81548330112014 474.7093741115975 258.6647571126941 480.2385200000001 253.71559000000013 C 486.29007112717767 248.61383831692663 493.5504922981067 245.15180328658784 501.324 243.66126 C 518.2831 240.1419 535.52317 244.90687 550.87539 252.08726 C 558.624066347596 255.54849339635834 566.040549336568 259.7099560387711 573.0324899999999 264.51982999999996 C 579.22995 268.9554 585.0017600000001 274.76499 587.38909 282.17276000000004 C 589.44651 288.55682 589.27525 296.11415000000005 585.17342 301.68076 C 580.7896499999999 307.63001 573.1925299999999 309.11551000000003 566.22703 308.75734 C 551.92042 308.02168 537.50286 299.70734 523.10739 304.4525 C 519.9109567999349 305.48568167249374 517.0132525680701 307.2796776785541 514.66339 309.68026 C 513.31705 311.06555 515.4361600000001 313.18913999999995 516.78471 311.80158 Z" stroke-linecap="round" />
</g>
<g transform="matrix(1.51 -1.16 1.16 1.51 679.5 560.2)"  >
<rect style="stroke: none; stroke-width: 1; stroke-dasharray: none; stroke-linecap: butt; stroke-dashoffset: 0; stroke-linejoin: miter; stroke-miterlimit: 4; fill: rgb(108,99,255); fill-rule: nonzero; opacity: 1;" vector-effect="non-scaling-stroke"  x="-16" y="-16" rx="0" ry="0" width="32" height="32" />
</g>
<g transform="matrix(1.98 0 0 1.98 692.36 563.2)"  >
<path style="stroke: none; stroke-width: 1; stroke-dasharray: none; stroke-linecap: butt; stroke-dashoffset: 0; stroke-linejoin: miter; stroke-miterlimit: 4; fill: rgb(63,61,86); fill-rule: nonzero; opacity: 1;" vector-effect="non-scaling-stroke"  transform=" translate(-959.99, -354.3)" d="M 956.832 378.13032 L 936.16187 351.135 L 963.1571700000001 330.46488 L 983.8272900000001 357.46018 Z M 938.96573 351.50709 L 957.20407 375.32647000000003 L 981.02345 357.08813000000004 L 962.7851 333.26875 Z" stroke-linecap="round" />
</g>
<g transform="matrix(0.74 0 0 0.74 689.27 903.52)"  >
<path style="stroke: none; stroke-width: 1; stroke-dasharray: none; stroke-linecap: butt; stroke-dashoffset: 0; stroke-linejoin: miter; stroke-miterlimit: 4; fill: rgb(242,242,242); fill-rule: nonzero; opacity: 1;" vector-effect="non-scaling-stroke"  transform=" translate(-918.49, -700.85)" d="M 900.74309 695.5402 C 893.2332 720.62653 904.8885200000001 746.2747400000001 904.8885200000001 746.2747400000001 C 904.8885200000001 746.2747400000001 928.7198 731.25 936.22974 706.16357 C 943.73968 681.0771400000001 932.08431 655.42902 932.08431 655.42902 C 932.08431 655.42902 908.253 670.45383 900.74309 695.5402 Z" stroke-linecap="round" />
</g>
<g transform="matrix(0.74 0 0 0.74 667.21 905.46)"  >
<path style="stroke: none; stroke-width: 1; stroke-dasharray: none; stroke-linecap: butt; stroke-dashoffset: 0; stroke-linejoin: miter; stroke-miterlimit: 4; fill: rgb(242,242,242); fill-rule: nonzero; opacity: 1;" vector-effect="non-scaling-stroke"  transform=" translate(-894.17, -700.69)" d="M 912.14552 696.21873 C 918.4661500000001 721.63081 905.61636 746.70186 905.61636 746.70186 C 905.61636 746.70186 882.51881 730.5718 876.19818 705.15972 C 869.8775499999999 679.7476399999999 882.72734 654.67658 882.72734 654.67658 C 882.72734 654.67658 905.82493 670.8066 912.14552 696.21873 Z" stroke-linecap="round" />
</g>
</svg>